<?xml version="1.0" standalone="no"?>
<!DOCTYPE svg PUBLIC "-//W3C//DTD SVG 20010904//EN"
 "http://www.w3.org/TR/2001/REC-SVG-20010904/DTD/svg10.dtd">
<svg version="1.0" xmlns="http://www.w3.org/2000/svg"
 width="1000.000000pt" height="1000.000000pt" viewBox="0 0 1000.000000 1000.000000"
 preserveAspectRatio="xMidYMid meet">
<metadata>
Created by potrace 1.11, written by Peter Selinger 2001-2013
</metadata>
<g transform="translate(0.000000,1000.000000) scale(0.100000,-0.100000)"
fill="#000000" stroke="none">
<path d="M7 9993 c-4 -3 -7 -2253 -7 -5000 l0 -4993 5000 0 5000 0 0 5000 0
5000 -4993 0 c-2747 0 -4997 -3 -5000 -7z m7952 -2558 c152 -36 308 -143 407
-280 16 -22 37 -47 46 -55 10 -8 24 -47 33 -88 8 -40 20 -82 25 -92 6 -10 10
-54 10 -98 0 -69 -5 -89 -40 -171 -70 -164 -97 -199 -198 -250 -94 -48 -207
-34 -253 31 -29 40 -31 65 -17 181 9 78 9 112 -1 163 -11 54 -11 68 1 87 13
20 12 27 -11 72 -48 92 -156 120 -271 71 -148 -64 -741 -340 -945 -440 l-230
-113 -17 -54 c-78 -250 -79 -414 -3 -600 64 -160 227 -315 377 -360 92 -28
221 -37 244 -18 7 6 18 9 26 8 7 -1 21 2 32 6 11 5 32 3 50 -3 18 -7 44 -12
58 -12 29 0 86 -36 141 -88 130 -124 93 -294 -81 -379 -58 -28 -158 -37 -184
-16 -7 6 -24 11 -38 11 -32 0 -243 46 -307 68 -68 23 -197 89 -275 141 -196
129 -367 377 -435 630 -24 88 -27 116 -27 274 l-1 177 -135 -68 c-177 -89
-217 -100 -355 -100 -138 0 -233 23 -348 82 -219 114 -326 313 -296 551 14
109 67 273 83 256 3 -3 -5 -32 -18 -64 -26 -66 -39 -135 -26 -135 4 0 11 23
15 51 9 66 83 214 129 258 56 54 54 28 -2 -34 -52 -56 -83 -122 -104 -218 -13
-63 -6 -245 10 -272 11 -17 13 -13 9 33 -2 28 0 52 4 52 5 0 20 -38 34 -84 23
-77 60 -144 72 -132 3 2 -7 34 -21 69 -14 35 -28 91 -31 123 -3 41 -2 50 4 28
12 -47 20 -57 36 -44 10 8 15 3 24 -21 21 -60 22 -21 2 46 -12 37 -20 86 -20
109 1 38 2 36 10 -17 10 -72 29 -111 22 -46 -2 24 0 62 5 84 10 39 10 39 11
-25 1 -54 5 -67 21 -78 11 -7 20 -21 20 -32 0 -12 6 -23 14 -26 8 -3 17 -15
20 -27 7 -26 55 -82 62 -74 3 3 21 -5 40 -18 20 -13 56 -27 82 -30 26 -3 55
-11 65 -16 47 -26 106 0 732 319 341 173 719 363 840 422 121 58 260 128 309
154 104 58 203 100 277 120 71 19 208 19 288 1z m-3992 -47 c148 -52 268 -158
332 -293 40 -84 48 -122 11 -51 -17 32 -33 56 -35 54 -3 -2 8 -33 22 -68 35
-86 44 -246 18 -336 -39 -138 -203 -364 -264 -364 -9 0 13 26 51 60 80 72 157
184 188 271 45 132 35 303 -25 404 -43 74 -55 81 -25 15 50 -109 35 -143 -17
-37 -39 80 -107 155 -173 191 -62 34 -76 29 -21 -7 92 -61 193 -238 190 -336
0 -16 -6 -6 -15 28 -17 65 -55 129 -72 123 -9 -3 -8 -12 7 -35 26 -43 51 -132
51 -180 0 -58 -11 -39 -15 26 -3 55 -40 156 -52 144 -3 -4 2 -32 12 -63 20
-64 18 -225 -4 -260 -10 -16 -11 -13 -4 16 22 98 0 269 -33 256 -8 -3 -17 7
-23 27 -13 37 -86 101 -150 130 -60 26 -186 21 -249 -12 -147 -75 -190 -194
-172 -471 5 -74 7 -198 3 -275 -3 -84 1 -242 11 -394 34 -539 15 -738 -93
-956 -112 -225 -306 -388 -541 -455 -113 -33 -306 -38 -430 -12 -344 71 -613
304 -709 616 -33 109 -50 324 -52 666 0 86 -5 174 -10 195 -6 22 -12 113 -14
203 -3 90 -7 167 -9 171 -3 4 2 30 10 59 14 48 14 56 -6 129 -11 43 -31 95
-43 115 -12 20 -34 56 -49 80 -16 25 -30 65 -33 89 -5 37 -1 49 20 74 l25 30
117 0 c115 0 120 -1 183 -34 133 -69 250 -231 280 -387 18 -93 9 -370 -13
-411 -13 -25 -15 -38 -6 -60 7 -20 7 -45 -1 -88 -6 -34 -12 -192 -13 -360 -2
-267 0 -307 16 -360 27 -87 50 -126 111 -192 71 -76 142 -118 246 -144 287
-73 589 105 631 370 18 113 22 545 9 1019 -13 539 -10 600 39 721 42 102 76
157 141 220 77 76 208 143 320 165 14 2 77 3 140 2 92 -3 129 -8 187 -28z
m1171 -556 c-12 -20 -28 -56 -34 -82 -11 -40 -13 -42 -13 -14 -2 54 41 150 60
138 5 -3 0 -22 -13 -42z m-917 -69 c-6 -36 -15 -71 -22 -77 -9 -8 -10 -5 -5
14 4 14 13 56 19 94 7 38 13 62 15 53 2 -10 -1 -47 -7 -84z m985 51 c-4 -14
-9 -24 -12 -21 -3 2 -2 17 2 31 3 15 9 25 11 22 3 -3 2 -17 -1 -32z m-1046
-239 c0 -9 -62 -75 -71 -75 -5 0 8 18 29 39 39 41 42 44 42 36z m-100 -48 c0
-2 -14 -16 -32 -33 l-31 -29 23 33 c20 27 40 42 40 29z m-114 -92 c-33 -25
-116 -49 -129 -36 -8 8 -3 11 19 12 16 0 49 8 74 19 56 22 60 23 36 5z m263
-403 c3 -6 17 -10 31 -11 59 -1 240 -23 300 -35 237 -50 433 -190 543 -389 51
-92 49 -91 141 -101 28 -4 53 -11 57 -18 4 -6 14 -8 23 -5 22 9 286 -45 357
-72 83 -31 228 -131 292 -200 152 -164 206 -358 208 -737 0 -110 4 -311 8
-449 6 -229 8 -254 29 -295 12 -26 35 -54 53 -64 40 -24 137 -31 213 -17 40 7
63 8 70 1 7 -7 -3 -10 -29 -11 -22 -1 -53 -5 -70 -9 -38 -10 139 -11 210 -2
45 6 50 9 56 39 10 49 39 92 101 146 64 56 114 71 188 57 35 -6 53 -18 82 -50
48 -54 94 -145 109 -217 13 -64 8 -198 -8 -228 -6 -11 -16 -62 -22 -114 -38
-315 -292 -598 -611 -679 -53 -13 -123 -16 -380 -17 -173 -1 -522 -5 -775 -9
-313 -6 -502 -5 -590 3 -71 6 -179 11 -240 12 -155 3 -198 8 -186 23 8 10 -25
12 -154 11 -91 -1 -165 2 -165 7 0 4 76 8 169 8 167 0 245 9 171 20 -22 3 -35
11 -35 20 0 12 15 15 79 15 114 0 109 19 -8 33 -52 7 -131 12 -175 12 -45 0
-81 4 -81 9 0 5 42 7 99 4 117 -7 151 -1 144 25 -3 14 -12 18 -36 15 -26 -3
-28 -1 -12 6 17 8 14 10 -17 10 -36 1 -66 21 -31 21 10 0 27 6 38 14 11 7 58
16 105 20 47 4 119 16 160 26 91 23 266 36 675 50 171 6 422 15 558 20 136 6
300 10 365 10 199 0 313 37 392 127 55 63 77 108 89 180 7 44 6 61 -4 73 -8 9
-11 27 -8 42 3 15 2 39 -1 53 -5 21 -11 24 -34 20 -27 -5 -27 -5 3 9 20 10 24
15 13 16 -21 0 -25 20 -4 20 15 0 36 49 36 85 0 20 -7 23 -60 28 -62 7 -233 0
-260 -10 -22 -8 25 -21 83 -22 26 -1 47 -5 47 -11 0 -6 -40 -7 -109 -3 -64 3
-110 2 -114 -4 -12 -19 12 -34 79 -47 38 -7 56 -14 41 -15 -16 0 -26 -5 -22
-11 3 -5 -1 -10 -9 -10 -8 0 -18 -5 -22 -11 -5 -9 13 -10 67 -6 59 4 65 4 30
-3 -53 -11 -71 -25 -21 -16 46 8 75 -9 31 -19 -17 -3 -34 -12 -38 -20 -18 -29
-204 -36 -303 -11 -166 43 -258 142 -295 315 -17 80 -22 182 -35 626 -5 176
-14 347 -20 379 -27 141 -96 235 -215 292 -61 30 -79 34 -143 33 -50 -1 -77
-6 -88 -16 -10 -10 -26 -13 -47 -10 -18 3 -49 3 -71 -1 -37 -7 -40 -10 -76
-94 -21 -48 -48 -101 -59 -117 -12 -16 -21 -33 -21 -38 0 -4 27 -19 61 -32
218 -84 383 -286 436 -534 18 -87 13 -272 -11 -362 -59 -223 -235 -422 -446
-505 -106 -42 -182 -50 -550 -60 -511 -15 -711 -25 -719 -39 -4 -6 -27 -11
-52 -11 -86 2 -118 -1 -124 -10 -3 -6 -17 -10 -30 -10 -13 0 -58 -13 -100 -30
-104 -40 -156 -46 -199 -26 -49 23 -66 67 -66 173 0 76 4 96 29 148 53 112
160 206 270 239 71 21 204 22 221 1 9 -11 17 -12 31 -4 13 7 31 6 57 -1 42
-12 483 -29 772 -29 130 -1 217 4 261 13 160 34 247 116 294 281 47 160 -55
354 -230 436 -86 40 -162 49 -505 57 -272 6 -305 9 -308 24 -2 11 6 18 27 23
39 8 50 25 17 25 -52 0 -33 17 26 24 34 3 64 9 67 12 19 19 -129 49 -200 41
-28 -4 -49 -2 -49 3 0 6 31 10 69 10 41 0 80 6 97 15 28 15 27 15 -41 16 -61
1 -66 2 -37 10 17 5 32 14 32 19 0 6 -15 10 -32 11 l-33 1 35 10 c19 5 77 18
128 29 50 10 118 28 150 39 31 12 77 25 101 31 70 15 129 48 185 103 145 146
166 379 50 539 -45 62 -138 122 -212 138 -92 19 -272 10 -272 -13 0 -6 -14 -8
-33 -5 -18 3 -53 1 -77 -3 -25 -5 -50 -4 -55 0 -6 5 -33 14 -60 21 -69 17 -97
32 -133 74 -58 65 -75 111 -69 180 3 34 11 73 18 87 16 36 133 119 188 135 51
14 170 11 180 -5z m2804 -1306 c48 -17 74 -41 97 -86 56 -111 14 -254 -87
-296 -39 -17 -131 -18 -170 -3 -99 37 -146 185 -92 296 42 88 149 125 252 89z
m-2950 -63 c-13 -2 -33 -2 -45 0 -13 2 -3 4 22 4 25 0 35 -2 23 -4z m-28 -183
c4 -6 -18 -10 -59 -10 -37 0 -66 4 -66 10 0 6 26 10 59 10 33 0 63 -4 66 -10z
m-1323 -321 c89 -45 122 -194 65 -291 -32 -55 -62 -76 -130 -90 -92 -19 -190
29 -223 109 -21 49 -18 147 6 192 22 43 71 89 103 96 12 2 31 6 42 9 32 7 97
-5 137 -25z m3838 -669 c0 -13 -20 -13 -40 0 -12 8 -9 10 13 10 15 0 27 -4 27
-10z m23 -77 c-7 -2 -19 -2 -25 0 -7 3 -2 5 12 5 14 0 19 -2 13 -5z m-2298
-628 c-26 -9 -105 -12 -105 -4 0 5 26 9 58 8 31 0 53 -2 47 -4z m53 -32 c-10
-2 -26 -2 -35 0 -10 3 -2 5 17 5 19 0 27 -2 18 -5z"/>
<path d="M5200 6611 c0 -6 4 -13 10 -16 6 -3 7 1 4 9 -7 18 -14 21 -14 7z"/>
<path d="M4090 7076 c0 -2 8 -10 18 -17 15 -13 16 -12 3 4 -13 16 -21 21 -21
13z"/>
<path d="M4076 7005 c9 -14 19 -24 21 -21 7 7 -16 46 -28 46 -5 0 -2 -11 7
-25z"/>
<path d="M4368 2793 c7 -3 16 -2 19 1 4 3 -2 6 -13 5 -11 0 -14 -3 -6 -6z"/>
</g>
</svg>
