<?xml version="1.0" encoding="utf-8"?>
<!-- Generator: Adobe Illustrator 25.2.1, SVG Export Plug-In . SVG Version: 6.00 Build 0)  -->
<svg version="1.1" xmlns="http://www.w3.org/2000/svg" xmlns:xlink="http://www.w3.org/1999/xlink" x="0px" y="0px"
	 viewBox="0 0 1134.011 790.963" style="enable-background:new 0 0 1134.011 790.963;" xml:space="preserve">
<style type="text/css">
	.st0{fill:#FECD31;}
	.st1{fill:#456838;}
	.st2{fill:#3B5631;}
	.st3{fill:#D0A798;}
	.st4{fill:#FFFFFF;}
	.st5{fill:#FE6952;}
	.st6{fill:#7F92FD;}
	.st7{fill:#093B78;}
	.st8{fill:#FC8A74;}
</style>
<g id="Layer_5">
	<g>
		<path class="st0" d="M797.509,88.507c0.893-0.255,1.822,0.261,2.077,1.154l4.457,15.599c0.255,0.893-0.261,1.822-1.154,2.077
			s-1.822-0.261-2.077-1.154l-4.457-15.599C796.1,89.691,796.616,88.762,797.509,88.507z"/>
		<path class="st0" d="M804.156,91.757c0.484-0.138,1.024-0.059,1.461,0.264c0.746,0.551,0.905,1.603,0.354,2.349l-9.897,13.408
			c-0.551,0.748-1.602,0.905-2.349,0.354c-0.746-0.551-0.905-1.603-0.354-2.349l9.897-13.408
			C803.496,92.063,803.812,91.855,804.156,91.757z"/>
		<path class="st0" d="M793.204,93.455c0.379-0.108,0.795-0.085,1.177,0.095l13.219,6.232c0.84,0.396,1.2,1.398,0.804,2.236
			c-0.397,0.844-1.398,1.2-2.236,0.804l-13.219-6.232c-0.84-0.396-1.2-1.398-0.804-2.236
			C792.362,93.898,792.755,93.584,793.204,93.455z"/>
	</g>
	<g>
		<path class="st0" d="M403.014,14.429c1.437-0.411,2.932,0.42,3.343,1.857l7.172,25.105c0.411,1.437-0.42,2.932-1.857,3.343
			c-1.437,0.411-2.932-0.42-3.343-1.857l-7.172-25.105C400.746,16.335,401.577,14.839,403.014,14.429z"/>
		<path class="st0" d="M413.711,19.659c0.78-0.223,1.648-0.095,2.351,0.424c1.201,0.887,1.457,2.58,0.569,3.781l-15.927,21.578
			c-0.887,1.204-2.578,1.456-3.781,0.569c-1.201-0.887-1.457-2.58-0.569-3.781l15.927-21.578
			C412.649,20.152,413.158,19.817,413.711,19.659z"/>
		<path class="st0" d="M396.086,22.393c0.609-0.174,1.279-0.137,1.895,0.153l21.275,10.03c1.352,0.638,1.931,2.25,1.295,3.599
			c-0.639,1.358-2.25,1.931-3.599,1.295l-21.275-10.03c-1.352-0.638-1.931-2.25-1.295-3.599
			C394.73,23.104,395.363,22.599,396.086,22.393z"/>
	</g>
	<g>
		<path class="st0" d="M134.397,174.95c0.893-0.255,1.822,0.261,2.077,1.154l4.457,15.599c0.255,0.893-0.261,1.822-1.154,2.077
			c-0.893,0.255-1.822-0.261-2.077-1.154l-4.457-15.599C132.987,176.134,133.504,175.205,134.397,174.95z"/>
		<path class="st0" d="M141.044,178.199c0.484-0.138,1.024-0.059,1.461,0.264c0.746,0.551,0.905,1.603,0.354,2.349l-9.897,13.408
			c-0.551,0.748-1.602,0.905-2.349,0.354c-0.746-0.551-0.905-1.603-0.354-2.349l9.897-13.408
			C140.384,178.506,140.7,178.298,141.044,178.199z"/>
		<path class="st0" d="M130.092,179.898c0.379-0.108,0.795-0.085,1.177,0.095l13.219,6.232c0.84,0.396,1.2,1.398,0.804,2.236
			c-0.397,0.844-1.398,1.2-2.236,0.804l-13.219-6.232c-0.84-0.396-1.2-1.398-0.804-2.236
			C129.249,180.341,129.642,180.027,130.092,179.898z"/>
	</g>
	<g>
		<path class="st0" d="M131.02,237.447c-1.052,0-1.903-0.851-1.903-1.903v-14.947c0-1.052,0.851-1.903,1.903-1.903
			c1.052,0,1.903,0.851,1.903,1.903v14.947C132.922,236.596,132.071,237.447,131.02,237.447z"/>
		<path class="st0" d="M136.936,229.973h-14.012c-1.052,0-1.903-0.851-1.903-1.903s0.851-1.903,1.903-1.903h14.012
			c1.052,0,1.903,0.851,1.903,1.903S137.988,229.973,136.936,229.973z"/>
	</g>
	<g>
		<path class="st0" d="M1026.225,112.37c0.504-0.971,1.697-1.35,2.668-0.846l13.805,7.158c0.971,0.504,1.35,1.697,0.846,2.668
			c-0.504,0.971-1.697,1.35-2.668,0.846l-13.804-7.158C1026.099,114.535,1025.721,113.341,1026.225,112.37z"/>
		<path class="st0" d="M1030.294,121.413l6.71-12.941c0.504-0.971,1.697-1.35,2.668-0.846c0.971,0.504,1.35,1.697,0.846,2.668
			l-6.71,12.941c-0.504,0.971-1.697,1.35-2.668,0.846S1029.79,122.384,1030.294,121.413z"/>
	</g>
</g>
<g id="Layer_3">
	<path class="st1" d="M501.716,790.963c31.71-157.398,102.102-571.843-18.43-646.664
		C351.244,62.332,316.323,271.802,217.942,252.167c-182.598-36.443-77.208,265.309-34.468,538.796H501.716z"/>
	<path class="st2" d="M674.623,790.963c81.29-90.859,219.154-262.587,240.296-403.093c51.478-342.108-232.68-275.2-379.531-54.935
		C438.612,478.09,397.29,687.165,381.9,790.963H674.623z"/>
	<path class="st2" d="M418.777,790.963c4.95-29.727,15.742-130.65-33.616-268.907c-59.194-165.808-212.227-166.08-253.85-46.838
		c-23.812,68.217-24.859,75.95-85.76,121.642c-79.886,59.935,7.505,163.14,36.95,194.103H418.777z"/>
	<path class="st1" d="M904.986,790.963c80.781-86.453,250.197-298.588,104.761-425.736
		C842.229,218.774,581.854,655.878,507.174,790.963H904.986z"/>
	<path class="st2" d="M979.849,790.963c31.256-36.273,138.629-171.072,40.418-205.921c-73.229-25.984-81.497,76.773-168.899,79.135
		c-130.054,3.515-201.978,84.121-215.292,126.786H979.849z"/>
	<g>
		<g>
			<path class="st0" d="M405.106,602.915c-0.134-0.076-0.262-0.167-0.385-0.269c-32.841-28.158-125.442-93.053-240.827-137.098
				c-1.255-0.477-1.864-1.863-1.389-3.108c0.473-1.242,1.865-1.866,3.108-1.389c116.004,44.27,209.185,109.586,242.247,137.939
				c1.008,0.867,1.125,2.385,0.259,3.398C407.357,603.275,406.088,603.472,405.106,602.915z"/>
			<path class="st0" d="M389.576,590.36c-0.589-0.334-1.038-0.916-1.177-1.637c-0.253-1.304,0.598-2.57,1.906-2.823
				c20.411-3.972,54.015-17.959,49.724-67.027c-0.115-1.323,0.864-2.491,2.191-2.608c1.329-0.112,2.494,0.865,2.608,2.191
				c4.795,54.795-35.89,68.724-53.605,72.173C390.638,590.743,390.059,590.634,389.576,590.36z"/>
			<path class="st0" d="M343.073,557.557c-0.079-0.045-0.158-0.097-0.232-0.15c-1.077-0.783-1.312-2.29-0.53-3.364
				c25.546-35.099,24.493-81.125,19.751-94.408c-0.448-1.252,0.207-2.629,1.459-3.077c1.256-0.449,2.633,0.205,3.077,1.459
				c5.734,16.054,5.689,63.026-20.392,98.86C345.476,557.877,344.123,558.152,343.073,557.557z"/>
			<path class="st0" d="M284.109,521.939c-0.949-0.538-1.441-1.674-1.122-2.766c5.743-19.74,1.002-54.041-2.796-62.489
				c-0.547-1.211-0.005-2.637,1.208-3.182c1.206-0.545,2.637-0.016,3.182,1.208c3.884,8.634,9.306,44.233,3.029,65.807
				c-0.371,1.278-1.707,2.014-2.983,1.64C284.442,522.102,284.27,522.03,284.109,521.939z"/>
			<path class="st0" d="M230.284,493.65c-0.554-0.314-0.984-0.846-1.149-1.516c-4.831-19.493-19.589-39.849-19.737-40.052
				c-0.785-1.076-0.548-2.581,0.523-3.365c1.076-0.785,2.591-0.54,3.365,0.523c0.629,0.861,15.461,21.31,20.52,41.735
				c0.321,1.292-0.466,2.597-1.756,2.915C231.429,494.047,230.802,493.944,230.284,493.65z"/>
			<path class="st0" d="M184.607,520.263c-0.464-0.263-0.844-0.68-1.053-1.213c-0.488-1.239,0.121-2.638,1.358-3.123
				c0.344-0.137,34.456-13.634,44.71-25.917c0.853-1.016,2.358-1.14,3.394-0.304c1.02,0.852,1.158,2.371,0.304,3.394
				c-11.042,13.223-45.198,26.74-46.646,27.31C185.971,520.686,185.215,520.607,184.607,520.263z"/>
			<path class="st0" d="M202.411,601.941c-0.202-0.114-0.389-0.26-0.56-0.436c-0.913-0.964-0.875-2.489,0.088-3.406
				c0.481-0.455,48.755-45.937,104.759-66.572c1.253-0.462,2.635,0.184,3.091,1.427c0.46,1.248-0.179,2.631-1.427,3.091
				c-55.083,20.295-102.632,65.096-103.105,65.549C204.47,602.34,203.309,602.45,202.411,601.941z"/>
			<path class="st0" d="M274.508,673.39c-1.08-0.612-1.526-1.964-0.994-3.111c0.346-0.745,35.21-74.959,80.587-109.234
				c1.064-0.803,2.581-0.592,3.374,0.47c0.8,1.062,0.59,2.572-0.47,3.374c-44.412,33.546-78.781,106.689-79.122,107.426
				c-0.562,1.202-1.995,1.728-3.202,1.166C274.624,673.452,274.565,673.422,274.508,673.39z"/>
			<path class="st0" d="M363.127,712.631c-0.079-0.045-0.158-0.097-0.232-0.15c-1.074-0.782-1.312-2.29-0.53-3.364
				c0.431-0.596,42.812-60.243,9.43-131.798c-0.564-1.206-0.043-2.641,1.162-3.202c1.209-0.562,2.639-0.04,3.202,1.162
				c34.618,74.198-9.45,136.058-9.9,136.675C365.53,712.951,364.178,713.226,363.127,712.631z"/>
			
				<ellipse transform="matrix(0.493 -0.87 0.87 0.493 -424.2768 696.6041)" class="st0" cx="385.536" cy="712.324" rx="10.38" ry="5.571"/>
			
				<ellipse transform="matrix(0.493 -0.87 0.87 0.493 -374.028 645.6291)" class="st0" cx="366.925" cy="643.724" rx="6.755" ry="5.571"/>
			<circle class="st0" cx="302.499" cy="571.001" r="5.571"/>
			<circle class="st0" cx="370.659" cy="540.931" r="3.939"/>
			
				<ellipse transform="matrix(0.8619 -0.507 0.507 0.8619 -235.2942 205.0361)" class="st0" cx="258.851" cy="534.577" rx="7.872" ry="5.571"/>
			
				<ellipse transform="matrix(0.1709 -0.9853 0.9853 0.1709 -175.6609 788.345)" class="st0" cx="380.577" cy="498.544" rx="11.568" ry="7.282"/>
			
				<ellipse transform="matrix(0.9638 -0.2666 0.2666 0.9638 -109.6776 108.2121)" class="st0" cx="343.662" cy="458.003" rx="3.641" ry="5.784"/>
			<path class="st0" d="M489.617,708.244c-0.376-0.213-0.699-0.529-0.922-0.937c-0.317-0.58-32.336-58.424-84.012-104.697
				c-0.99-0.885-1.076-2.408-0.186-3.399c0.885-0.99,2.415-1.068,3.399-0.186c52.311,46.838,84.701,105.382,85.021,105.968
				c0.64,1.166,0.212,2.628-0.955,3.269C491.205,708.679,490.321,708.643,489.617,708.244z"/>
		</g>
		<path class="st3" d="M297.265,720.904c-0.979-0.555-1.849-1.202-2.566-1.915c-1.675-1.662-8.959-7.862-17.396-15.039
			c-19.7-16.759-34.959-29.845-37.37-33.211c-5.996-8.378-2.727-18.055,8.973-26.549l1.633-1.183
			c14.627-10.601,34.661-25.12,36.022-37.406c0.361-3.277-0.65-6.218-3.096-8.988c-1.382-1.569-3.036-2.199-5.204-2.011
			c-13.294,1.15-37.682,32.202-45.146,44.364c-5.83,9.495-12.852,10.558-16.518,10.344c-5.877-0.339-11.42-4.29-14.101-10.066
			c-0.778-1.674-2.025-4.301-3.566-7.553c-6.983-14.722-19.984-42.123-22.844-51.247c-1.943-6.201-1.728-11.276,0.633-15.085
			c2.585-4.168,7.443-6.692,15.292-7.939c2.795-0.442,5.705-0.858,8.646-1.278c14.496-2.069,30.927-4.415,34.222-10.613
			c0.885-1.657,0.729-3.666-0.468-6.14c-3.845-7.927-19.464-2.49-28.802,0.753c-1.996,0.693-3.755,1.303-5.145,1.709
			c-7.232,2.09-12.688,2.026-16.681-0.207c-0.019-0.011-0.041-0.023-0.063-0.036c-4.923-2.786-6.832-8.423-8.365-13.962
			c-2.671-9.655-12.55-61.687-12.97-63.896c-0.192-1.017,0.283-2.038,1.182-2.545c1.662-0.943,40.887-23.07,52.789-24.579
			c18.332-2.332,21.619,6.414,23.801,12.213c0.202,0.54,0.4,1.063,0.604,1.561c0.673,1.636,1.43,3.704,2.273,6.013
			c3.67,10.048,10.522,28.729,18.673,27.357c2.729-0.465,3.558-1.668,3.94-2.532c0.865-1.939,1.719-8.263-8.943-25.098
			c-3.521-5.559-4.459-10.347-2.789-14.223c1.422-3.299,4.739-5.68,9.1-6.532c4.677-0.914,11.2-1.677,24.121-0.418
			c12.8,1.255,18.497,7.028,19.026,19.318c0.041,0.92,0.076,2.13,0.118,3.57c0.345,11.591,1.396,46.865,11.134,55.089
			c1.518,1.289,3.095,1.764,4.953,1.505c3.23-0.447,5.599-1.974,7.241-4.663c6.097-9.985,1.063-34.151-5.683-53.439
			c-2.927-8.376-2.88-14.286,0.15-18.069c2.889-3.604,8.063-4.918,15.816-4.01c0.858,0.101,2.309,0.238,4.17,0.413
			c10.212,0.964,31.46,2.97,39.724,6.697c8.702,3.928,26.827,12.101,21.647,31.147c-0.729,2.686-1.744,6.094-2.907,9.99
			c-5.777,19.375-16.529,55.436-9.327,66.133c1.124,1.668,2.606,2.525,4.647,2.727c3.131,0.3,5.863-0.635,8.359-2.858
			c8.397-7.492,13.541-29.662,14.107-60.823l0.018-0.916c0.208-8.788,3.282-15.004,8.226-16.624
			c3.431-1.126,9.025-0.541,16.121,8.651c5.469,7.077,41.21,69.878,23.164,108.336c-4.597,9.793-11.572,16.416-20.73,19.685
			c-13.406,4.788-28.095,1.211-36.023-1.519c7.719,17.481,27.573,72.344-2.919,118.52c-8.749,13.254-20.151,21.145-33.886,23.454
			c-20.89,3.513-41.421-7.074-49.345-13.15c-9.178-7.038-9.884-15.511-2.217-26.664c7.755-11.283,33.137-56.315,26.664-72.655
			c-1.14-2.873-3.257-4.606-6.476-5.306c-4.656-1.013-8.544-0.091-11.88,2.812c-13.873,12.088-13.988,54.075-12.933,67.828
			c1.093,14.272-3.784,19.628-8.069,21.608C305.827,723.698,300.83,722.925,297.265,720.904z M284.248,591.11
			c1.034,0.586,1.984,1.358,2.826,2.315c3.35,3.794,4.788,8.069,4.274,12.704c-1.593,14.407-21.771,29.028-37.983,40.779
			l-1.627,1.179c-5.431,3.943-13.675,11.764-7.887,19.848c2.254,3.151,22.906,20.72,36.572,32.348
			c8.865,7.539,15.864,13.493,17.669,15.288c1.798,1.783,6.367,3.456,9.914,1.815c4.1-1.893,5.977-7.883,5.289-16.865
			c-0.041-0.557-3.738-55.879,14.573-71.829c4.499-3.92,9.904-5.229,16.064-3.887c4.839,1.045,8.184,3.819,9.93,8.236
			c7.814,19.723-21.146,68.393-27.173,77.16c-7.175,10.437-4.717,15.589,1.181,20.109c7.36,5.648,26.362,15.459,45.615,12.222
			c12.364-2.077,22.681-9.263,30.667-21.353c35.02-53.035,0.378-118.558,0.021-119.214c-0.493-0.917-0.342-2.05,0.374-2.804
			c0.719-0.753,1.843-0.963,2.782-0.514c0.207,0.099,20.935,9.811,38.184,3.64c7.896-2.824,13.941-8.607,17.967-17.189
			c16.922-36.061-18.103-97.511-22.611-103.345c-4.138-5.361-8.079-7.915-10.81-7.019c-2.833,0.929-4.758,5.701-4.911,12.16
			l-0.018,0.891c-0.424,23.33-3.497,53.427-15.718,64.328c-3.5,3.124-7.546,4.489-12.023,4.058c-3.499-0.332-6.25-1.959-8.183-4.831
			c-7.817-11.608,0.014-41.046,8.708-70.199c1.148-3.851,2.152-7.221,2.874-9.875c3.785-13.919-7.299-20.232-18.98-25.491
			c-7.531-3.399-29.02-5.425-38.198-6.293c-1.909-0.181-3.397-0.321-4.279-0.424c-4.045-0.475-9.323-0.471-11.493,2.239
			c-1.881,2.347-1.666,6.877,0.638,13.466c4.42,12.643,13.78,43.556,5.245,57.537c-2.408,3.944-6.004,6.271-10.689,6.926
			c-3.219,0.447-6.148-0.427-8.724-2.597c-10.088-8.523-12.158-35.808-12.837-58.628c-0.042-1.415-0.078-2.603-0.116-3.504
			c-0.425-9.86-4.266-13.709-14.683-14.731c-12.302-1.2-18.395-0.497-22.727,0.35c-1.316,0.256-4.49,1.132-5.602,3.71
			c-0.991,2.296-0.147,5.665,2.433,9.744c8.754,13.822,11.878,23.792,9.275,29.633c-0.888,1.994-2.916,4.536-7.533,5.319
			c-12.117,2.055-19.274-17.505-24.003-30.449c-0.82-2.242-1.55-4.248-2.204-5.837c-0.221-0.539-0.438-1.11-0.658-1.695
			c-2.032-5.401-4.147-10.981-18.685-9.131c-8.721,1.106-37.365,16.344-49.523,23.147c1.763,9.248,10.204,53.308,12.554,61.812
			c1.315,4.753,2.775,9.173,6.098,11.056c0.014,0.008,0.025,0.014,0.038,0.022c2.811,1.571,7.061,1.5,12.99-0.219
			c1.327-0.383,3.002-0.966,4.905-1.628c10.849-3.768,29.006-10.084,34.715,1.696c1.89,3.904,2.022,7.435,0.389,10.503
			c-4.447,8.357-20.647,10.672-37.794,13.12c-2.917,0.416-5.803,0.828-8.573,1.27c-6.277,0.996-10.186,2.864-11.953,5.715
			c-1.592,2.568-1.637,6.306-0.134,11.107c2.762,8.802,15.667,36.008,22.602,50.624c1.548,3.267,2.801,5.908,3.58,7.586
			c1.951,4.19,5.88,7.051,10.013,7.288c4.477,0.259,8.786-2.601,12.133-8.057c4.523-7.366,31.206-45.115,48.837-46.641
			C280.206,589.599,282.371,590.047,284.248,591.11z"/>
	</g>
	<g>
		<g>
			<g>
				<path class="st0" d="M1110.384,248.484c-22.53,8.459-105.919,83.811-114.602,95.87c-8.683,12.059-19.011,26.771,11.39,9.978
					c30.401-16.793,73.49-31.313,115.301-92.824C1134.986,243.098,1123.61,243.518,1110.384,248.484z"/>
				<path class="st0" d="M1028.569,262.903c-6.169,23.261-68.237,104.719-77.407,116.412c-9.4,11.987-23.918,17.338-15.398-12.419
					c9.56-33.389,23.505-70.866,78.641-114.723C1031.825,238.316,1032.191,249.246,1028.569,262.903z"/>
				<path class="st0" d="M941.445,401.172c29.891-7.427,96.317-42.046,105.101-45.25c8.784-3.204,26.205-4.718,14.201,11.931
					c-12.004,16.649-42.072,50.135-118.156,53.006C912.284,422.002,923.697,405.582,941.445,401.172z"/>
				<path class="st0" d="M808.521,490.939c-0.304-30.798,16.559-103.782,17.459-113.088s-2.002-26.551-15.11-10.757
					c-13.108,15.794-37.987,53.296-21.694,127.671C795.666,524.39,808.701,509.225,808.521,490.939z"/>
				<path class="st0" d="M873.839,459.004c19.877-29.954,38.387-71.367,47.387-118.496c2.622-13.729-2.863-12.14-16.032-0.635
					c-53.591,46.822-39.163,67.607-52.331,108.983C840.868,486.544,860.554,479.023,873.839,459.004z"/>
				<path class="st0" d="M847.976,493.041c15.019-8.043,93.742-40.609,102.001-43.274c8.259-2.665,24.166-1.132,7.661,14.437
					c-16.505,15.569-35.94,40.44-106.716,47.301C841.315,512.436,824.578,505.571,847.976,493.041z"/>
				<path class="st0" d="M897.911,523.542c27.817-8.673,63.423-5.225,16.021,28.391c-47.402,33.616-102.483,20.321-114.713,18.899
					s-14.891-9.765,3.74-16.187C821.591,548.223,870.094,532.215,897.911,523.542z"/>
			</g>
			<g>
				<path class="st3" d="M727.817,640.606c-0.166-0.053-0.329-0.124-0.486-0.218c-1.122-0.662-1.496-2.109-0.833-3.232
					c90.245-152.994,262.561-282.152,264.291-283.438c1.047-0.777,2.524-0.56,3.303,0.485c0.779,1.046,0.561,2.525-0.485,3.303
					c-1.723,1.282-173.288,129.889-263.044,282.05C729.994,640.521,728.843,640.932,727.817,640.606z"/>
				<path class="st3" d="M902.743,432.99c-0.373-0.119-0.723-0.332-1.009-0.639c-0.889-0.954-0.837-2.447,0.117-3.336
					c7.51-7,31.784-19.331,49.931-22.024c1.293-0.193,2.492,0.699,2.681,1.988c0.192,1.29-0.698,2.491-1.988,2.681
					c-17.304,2.568-40.328,14.211-47.405,20.808C904.424,433.07,903.529,433.24,902.743,432.99z"/>
				<path class="st3" d="M920.942,416.446c-0.339-0.108-0.66-0.295-0.932-0.56c-0.932-0.912-0.949-2.407-0.038-3.338
					c10.612-10.852,22.138-41.029,24.878-53.845c0.272-1.274,1.527-2.087,2.802-1.814c1.269,0.266,2.086,1.528,1.814,2.802
					c-2.734,12.791-14.431,44.206-26.117,56.157C922.703,416.507,921.766,416.709,920.942,416.446z"/>
				<path class="st3" d="M833.726,501.836c-0.314-0.1-0.613-0.268-0.873-0.504c-0.964-0.878-1.033-2.371-0.156-3.335
					c11.675-12.818,32.473-51.484,34.038-55.281c0.496-1.205,1.865-1.786,3.082-1.282c1.205,0.497,1.78,1.876,1.282,3.082
					c-1.659,4.022-22.635,43.182-34.912,56.66C835.546,501.881,834.577,502.107,833.726,501.836z"/>
				<path class="st3" d="M804.48,534.75c-0.278-0.088-0.543-0.231-0.782-0.427c-1.008-0.829-1.152-2.316-0.324-3.323
					c18.909-22.98,67.226-38.331,83.104-43.375c1.538-0.489,2.78-0.884,3.672-1.183c1.237-0.413,2.574,0.254,2.987,1.49
					c0.413,1.236-0.253,2.573-1.49,2.987c-0.908,0.304-2.173,0.707-3.741,1.203c-15.549,4.941-62.865,19.973-80.886,41.876
					C806.389,534.767,805.373,535.034,804.48,534.75z"/>
				<path class="st3" d="M763.34,586.796c-0.339-0.108-0.66-0.295-0.933-0.562c-0.932-0.911-0.948-2.406-0.036-3.338
					c17.403-17.785,39.682-21.074,59.339-23.976l1.145-0.169c1.292-0.186,2.489,0.703,2.681,1.99c0.191,1.29-0.701,2.49-1.99,2.681
					l-1.146,0.169c-18.92,2.793-40.364,5.959-56.655,22.608C765.1,586.858,764.164,587.058,763.34,586.796z"/>
				<path class="st3" d="M781.115,563.313c-0.192-0.061-0.379-0.148-0.557-0.262c-1.098-0.703-1.419-2.163-0.717-3.261
					c16.332-25.534,17.309-45.861,18.094-62.194c0.287-5.981,0.536-11.146,1.524-15.771c0.272-1.276,1.526-2.088,2.801-1.816
					c1.295,0.274,2.089,1.527,1.816,2.801c-0.907,4.249-1.147,9.238-1.424,15.013c-0.77,16.002-1.823,37.917-18.832,64.51
					C783.23,563.254,782.109,563.629,781.115,563.313z"/>
			</g>
		</g>
		<g>
			
				<ellipse transform="matrix(0.9258 -0.3781 0.3781 0.9258 -46.0838 415.0954)" class="st4" cx="1033.996" cy="324.9" rx="6.772" ry="3.691"/>
			
				<ellipse transform="matrix(0.9258 -0.3781 0.3781 0.9258 -28.0702 430.4547)" class="st4" cx="1082.115" cy="286.708" rx="6.772" ry="3.691"/>
			
				<ellipse transform="matrix(0.9258 -0.3781 0.3781 0.9258 -37.0011 422.898)" class="st4" cx="1058.406" cy="305.672" rx="6.772" ry="3.691"/>
			
				<ellipse transform="matrix(0.9258 -0.3781 0.3781 0.9258 -65.202 419.1982)" class="st4" cx="1034.884" cy="375.635" rx="6.772" ry="3.691"/>
			
				<ellipse transform="matrix(0.6468 -0.7627 0.7627 0.6468 145.783 865.2856)" class="st4" cx="1007.056" cy="275.255" rx="6.772" ry="3.691"/>
			
				<ellipse transform="matrix(0.6468 -0.7627 0.7627 0.6468 122.4069 859.5994)" class="st4" cx="989.229" cy="297.649" rx="6.772" ry="3.691"/>
			
				<ellipse transform="matrix(0.6468 -0.7627 0.7627 0.6468 87.8763 852.8179)" class="st4" cx="964.642" cy="331.538" rx="6.772" ry="3.691"/>
			
				<ellipse transform="matrix(0.4347 -0.9006 0.9006 0.4347 181.5103 1017.5086)" class="st4" cx="901.22" cy="364.178" rx="6.772" ry="3.691"/>
			
				<ellipse transform="matrix(0.4347 -0.9006 0.9006 0.4347 147.6156 1022.1033)" class="st4" cx="887.933" cy="393.473" rx="6.772" ry="3.691"/>
			
				<ellipse transform="matrix(0.4347 -0.9006 0.9006 0.4347 112.9365 1028.8479)" class="st4" cx="875.966" cy="424.468" rx="6.772" ry="3.691"/>
			
				<ellipse transform="matrix(0.9982 -0.0598 0.0598 0.9982 -26.0384 48.5785)" class="st4" cx="798.037" cy="459.022" rx="3.691" ry="6.772"/>
			
				<ellipse transform="matrix(0.3033 -0.9529 0.9529 0.3033 152.7495 1059.6848)" class="st4" cx="801.033" cy="425.386" rx="6.772" ry="3.691"/>
			
				<ellipse transform="matrix(0.3033 -0.9529 0.9529 0.3033 187.673 1046.3457)" class="st4" cx="809.373" cy="394.834" rx="6.772" ry="3.691"/>
			
				<ellipse transform="matrix(0.8346 -0.5508 0.5508 0.8346 -101.9402 593.5129)" class="st4" cx="937.477" cy="466.53" rx="6.772" ry="3.691"/>
			
				<ellipse transform="matrix(0.9543 -0.2987 0.2987 0.9543 -102.2678 293.9856)" class="st4" cx="910.53" cy="481.524" rx="6.772" ry="3.691"/>
			
				<ellipse transform="matrix(0.9543 -0.2987 0.2987 0.9543 -127.8265 278.9052)" class="st4" cx="848.421" cy="557.589" rx="6.772" ry="3.691"/>
			
				<ellipse transform="matrix(0.9543 -0.2987 0.2987 0.9543 -118.3342 295.8178)" class="st4" cx="908.49" cy="534.995" rx="6.772" ry="3.691"/>
			
				<ellipse transform="matrix(0.9543 -0.2987 0.2987 0.9543 -123.4165 287.9184)" class="st4" cx="880.109" cy="547.67" rx="6.772" ry="3.691"/>
			
				<ellipse transform="matrix(0.9258 -0.3781 0.3781 0.9258 -74.5028 409.0054)" class="st4" cx="1004.278" cy="394.224" rx="6.772" ry="3.691"/>
			
				<ellipse transform="matrix(0.9258 -0.3781 0.3781 0.9258 -79.9568 398.7738)" class="st4" cx="975.496" cy="402.996" rx="6.772" ry="3.691"/>
		</g>
	</g>
	<g>
		<path class="st5" d="M732.355,423.839c-161.079-37.142,46.324-149.696-69.032-231.19c-81.226-57.383-94.443,42.616-186.117,42.616
			c-95.792,0-125.031,143.958-44.827,200.83c73.694,52.256,238.409,140.29,245.277,95.093
			C687.479,466.53,732.355,423.839,732.355,423.839z"/>
		<path class="st6" d="M687.479,432.842c-84.707,33.799-163.002-154.984-239.198-87.881
			c-87.944,77.449,34.288,229.143,0.518,273.993c64.26,30.044,154.391-98.901,154.391-98.901S639.076,488.756,687.479,432.842z"/>
		<polygon class="st6" points="667.156,377.672 672.411,370.773 709.201,394.26 731.538,362.726 735.644,370.609 719.548,414.626 		
			"/>
		<polygon class="st6" points="658.122,380.464 664.935,374.551 707.066,392.946 739.421,364.046 739.421,372.087 713.636,409.698 
					"/>
		<polygon class="st7" points="582.096,436.095 655.677,376.79 705.934,394.825 747.774,364.046 738.636,426.566 642.286,491.25 		
			"/>
		<path class="st3" d="M658.841,311.322c-6.639,10.137-59.742,53.259-92.045,23.388c-31.739-29.35-12.522-63.563-12.522-63.563
			s-12.557-8.461-7.761-17.332c6.237-11.538,18.378-4.203,18.378-4.203s42.891-38.555,83.53-12.504
			C689.059,263.158,669.608,294.881,658.841,311.322z"/>
		<path class="st5" d="M686.739,266.251c-22.066,8.024-84.183,6.687-151.121-20.729c-7.876-3.226,91.609-38.115,91.609-38.115
			l66.868,30.073L686.739,266.251z"/>
		<path class="st8" d="M436.578,790.963h385.425c103.275-94.601,67.298-157.131-29.017-175.653
			c-23.989-109.874-23.253-165.86-77.029-177.576c-36.671-7.99-71.719,10.019-219.435,126.286
			C351.658,678.042,404.767,760.402,436.578,790.963z"/>
		<path class="st3" d="M570.469,790.963c-2.444-4.523-4.812-10.462-5.114-16.853c-0.393-8.339,0.835-22.95,0.835-22.95
			s-7.928,6.468-19.82,3.964c-11.892-2.504-37.137-35.886-50.699-11.892s-32.138,28.52-60.922,30.044
			c-14.906,0.789-18.151,12.101-18.151,12.101s-10.798-1.357-15.831,5.587H570.469z"/>
		<path class="st3" d="M585.08,435.219c7.148,9.248,19.075,23.216,26.395,23.911c26.837,2.551,81.429-47.986,83.933-52.159
			c2.504-4.173,7.52-30.137,14.049-29.842c7.726,0.349,2.304,15.01,6.203,15.216c6.598,0.347,31.48-21.996,32.479-24.744
			c5.583-0.034,1.766,13.905,0.542,15.774c2.746,3.296,4.714,10.034,1.428,15.705c0.42,3.661-0.155,9.445-2.218,14.326
			c-0.248,13.522-11.041,21.462-22.642,26.986c-22.327,17.182-67.517,111.262-117.562,111.133
			c-41.363-0.107-56.935-19.749-91.773-52.879C551.638,479.666,566.084,463.108,585.08,435.219z"/>
		<path class="st7" d="M500.837,502.627c1.319,0.245,0.78-0.409,2.278-1.242c0.661-0.368,1.126-1.377,2.021-1.882
			c0.713-0.403,2.145,0.298,2.986-0.184c0.732-0.418,0.955-1.828,1.772-2.301c0.742-0.43,2.116,0.147,2.919-0.323
			c0.748-0.438,0.892-1.96,1.686-2.431c0.752-0.446,2.044-0.027,2.83-0.499c0.753-0.452,1.325-1.243,2.104-1.717
			c0.753-0.458,1.649-0.714,2.421-1.19c0.754-0.464,1.541-0.899,2.309-1.379c0.754-0.471,1.098-1.607,1.86-2.09
			c0.753-0.477,1.757-0.569,2.514-1.057c0.751-0.484,1.525-0.941,2.276-1.434c0.749-0.491,1.644-0.769,2.39-1.268
			c0.747-0.499,1.331-1.241,2.071-1.746c0.744-0.508,1.449-1.067,2.182-1.579c0.741-0.517,1.871-0.481,2.595-1
			c0.736-0.527,0.748-2.037,1.462-2.564c0.731-0.539,1.543-0.94,2.246-1.477c0.724-0.553,1.486-1.024,2.176-1.572
			c0.716-0.569,1.196-1.383,1.87-1.944c0.678-0.565,1.264-1.216,1.927-1.793c0.667-0.58,1.333-1.136,1.984-1.726
			c0.656-0.594,1.376-1.095,2.016-1.697c0.645-0.607,1.632-0.843,2.26-1.456c0.634-0.619,1.518-0.984,2.134-1.608
			c0.624-0.631,1.317-1.196,1.922-1.829c0.614-0.642,1.5-1.033,2.094-1.676c0.604-0.653,0.171-2.243,0.754-2.894
			c0.595-0.663,2.044-0.559,2.617-1.218c0.586-0.673,0.28-2.097,0.842-2.762c0.577-0.683,1.501-1.054,2.052-1.725
			c0.568-0.692,0.96-1.505,1.5-2.182c0.56-0.702,0.8-1.625,1.329-2.307c0.553-0.712,2.062-0.666,2.581-1.353
			c0.546-0.723,1.285-1.283,1.792-1.974c0.539-0.734,0.355-1.961,0.849-2.652c0.534-0.749,0.934-1.543,1.413-2.234
			c0.531-0.766,0.599-1.78,1.06-2.466c0.534-0.794,1.012-1.522,1.45-2.194c0.553-0.85,1.589-1.23,1.982-1.857
			c0.9-1.438,0.826-0.894,0.855-2.211c0.03-1.341-0.391-0.521-1.228-2.043c-0.362-0.658-0.188-1.78-0.698-2.679
			c-0.401-0.706-1.357-1.186-1.847-2.026c-0.422-0.724-0.02-2.001-0.506-2.816c-0.437-0.732-0.803-1.563-1.29-2.362
			c-0.448-0.735-1.537-1.118-2.027-1.904c-0.458-0.736-1.016-1.44-1.511-2.217c-0.468-0.735-0.984-1.464-1.483-2.233
			c-0.476-0.734-0.132-2.032-0.637-2.794c-0.484-0.73-0.942-1.507-1.451-2.26c-0.492-0.728-1.786-0.929-2.302-1.677
			c-0.5-0.725-0.981-1.477-1.502-2.219c-0.508-0.722-0.809-1.604-1.337-2.34c-0.515-0.718-1.529-1.086-2.063-1.815
			c-0.523-0.714-0.146-2.107-0.687-2.83c-0.531-0.71-2.14-0.615-2.688-1.332c-0.539-0.705-0.655-1.741-1.209-2.452
			c-0.546-0.7-1.323-1.223-1.885-1.928c-0.554-0.695-0.584-1.82-1.153-2.518c-0.562-0.69-1.178-1.345-1.755-2.037
			c-0.571-0.684-0.946-1.544-1.53-2.228c-0.579-0.678-1.076-1.44-1.668-2.116c-0.587-0.671-1.556-1.015-2.156-1.684
			c-0.596-0.664-0.932-1.573-1.54-2.234c-0.604-0.657-0.972-1.55-1.588-2.202c-0.613-0.649-1.587-0.967-2.212-1.611
			c-0.622-0.641-1.412-1.124-2.046-1.759c-0.632-0.633-1.009-1.531-1.652-2.156c-0.641-0.624-1.362-1.174-2.015-1.789
			c-0.651-0.614-1.045-1.519-1.707-2.123c-0.661-0.604-2.218-0.212-2.89-0.805c-0.671-0.593-1.149-1.398-1.83-1.979
			c-0.682-0.581-1.094-1.482-1.786-2.051c-0.693-0.569-1.261-1.298-1.964-1.852c-0.703-0.556-1.182-1.418-1.895-1.958
			c-0.715-0.542-2.143-0.124-2.867-0.649c-0.726-0.526-0.893-1.841-1.628-2.35c-0.737-0.51-1.623-0.515-2.369-1.006
			c0.784,0.416,1.253,1.05,2.027,1.489c0.772,0.438,1.606,0.758,2.367,1.218c0.76,0.459,1.235,1.356,1.984,1.835
			c0.747,0.479,2.114,0.013,2.851,0.511c0.735,0.497,1.341,1.198,2.065,1.713c0.724,0.514,1.234,1.325,1.946,1.857
			c0.712,0.531,1.615,0.812,2.316,1.359c0.7,0.546,1.453,1.035,2.142,1.596c0.689,0.561,1.484,1.006,2.162,1.58
			c0.678,0.575,0.692,1.916,1.359,2.503c0.667,0.588,1.984,0.449,2.639,1.048c0.657,0.6,0.764,1.79,1.409,2.4
			c0.646,0.612,1.177,1.33,1.812,1.951c0.636,0.623,1.352,1.153,1.976,1.784c0.626,0.633,1.11,1.392,1.724,2.032
			c0.617,0.643,1.805,0.739,2.409,1.388c0.607,0.652,0.49,1.961,1.084,2.618c0.598,0.662,1.259,1.25,1.844,1.915
			c0.589,0.67,1.747,0.837,2.322,1.51c0.58,0.678,0.53,1.879,1.096,2.559c0.572,0.686,2.192,0.504,2.749,1.189
			c0.564,0.694,0.121,2.189,0.669,2.881c0.556,0.702,1.794,0.859,2.333,1.558c0.548,0.709,1.125,1.391,1.656,2.096
			c0.54,0.716,1.357,1.223,1.88,1.933c0.533,0.723,0.892,1.57,1.406,2.284c0.525,0.73,0.673,1.72,1.179,2.44
			c0.518,0.737,1.152,1.38,1.65,2.104c0.511,0.743,1.241,1.326,1.73,2.053c0.504,0.75,1.24,1.335,1.721,2.066
			c0.497,0.756,0.332,1.927,0.803,2.661c0.49,0.763,1.576,1.129,2.038,1.864c0.485,0.771,0.13,2.041,0.583,2.779
			c0.479,0.78,0.565,1.762,1.008,2.501c0.473,0.789,1.458,1.232,1.89,1.969c0.47,0.802,0.586,1.757,1.006,2.492
			c0.467,0.818,1.224,1.408,1.628,2.135c0.47,0.844,1.611,1.236,1.994,1.945c0.487,0.902,0.956,1.675,1.3,2.336
			c0.794,1.524,0.732,1.376,0.766,2.704c0.034,1.338-0.177,1.053-1.02,2.612c-0.352,0.651-1.604,0.971-2.13,1.871
			c-0.405,0.692-1.036,1.335-1.552,2.167c-0.437,0.704-0.441,1.748-0.962,2.548c-0.46,0.706-0.438,1.798-0.968,2.576
			c-0.479,0.705-1.9,0.804-2.438,1.566c-0.495,0.701-0.002,2.156-0.549,2.903c-0.51,0.696-1.336,1.202-1.892,1.938
			c-0.522,0.691-0.976,1.474-1.54,2.198c-0.534,0.685-1.625,0.959-2.198,1.673c-0.545,0.68-1.312,1.198-1.893,1.904
			c-0.555,0.674-0.982,1.473-1.571,2.17c-0.564,0.668-0.615,1.799-1.211,2.487c-0.573,0.662-1.048,1.439-1.651,2.119
			c-0.581,0.655-1.565,0.973-2.174,1.645c-0.59,0.65-1.476,1.045-2.093,1.71c-0.598,0.645-1.015,1.475-1.638,2.134
			c-0.604,0.639-0.916,1.576-1.545,2.227c-0.613,0.635-1.299,1.218-1.935,1.865c-0.62,0.629-1.154,1.363-1.796,2.003
			c-0.627,0.624-1.739,0.765-2.407,1.387c-0.648,0.605-1.049,1.495-1.732,2.097c-0.667,0.588-1.207,1.344-1.903,1.929
			c-0.682,0.573-1.701,0.749-2.408,1.318c-0.695,0.559-1.705,0.715-2.421,1.269c-0.707,0.547-1.369,1.143-2.093,1.684
			c-0.717,0.536-1.469,1.014-2.2,1.543c-0.727,0.526-1.437,1.062-2.174,1.58c-0.735,0.517-0.664,2.199-1.406,2.707
			c-0.743,0.508-1.828,0.52-2.575,1.018c-0.751,0.501-1.401,1.153-2.153,1.643c-0.757,0.493-2.084,0.092-2.839,0.573
			c-0.764,0.487-1.249,1.397-2.007,1.87c-0.77,0.48-1.163,1.56-1.924,2.025c-0.776,0.474-2.114,0.002-2.877,0.459
			c-0.782,0.469-0.926,1.987-1.69,2.437c-0.788,0.464-2.037,0.112-2.802,0.555c-0.795,0.46-1.614,0.836-2.38,1.271
			c-0.802,0.456-1.333,1.345-2.098,1.772c-0.81,0.452-1.28,1.468-2.042,1.887c-0.821,0.451-1.624,0.87-2.382,1.279
			c-0.836,0.451-2.311-0.395-3.058,0.001c-0.861,0.457-1.508,1.155-2.236,1.534c-0.917,0.477-1.488,1.34-2.164,1.683
			c-1.538,0.782-0.985,0.677-2.298,0.382c-1.31-0.295-0.913,0.099-1.955-1.293c-0.45-0.601-1.175-1.186-1.789-2.019
			c-0.483-0.655-0.021-2.104-0.595-2.893c-0.494-0.679-1.02-1.4-1.575-2.172c-0.498-0.693-1.235-1.264-1.779-2.027
			c-0.5-0.702-1.384-1.173-1.918-1.932c-0.5-0.71-1.083-1.396-1.61-2.153c-0.498-0.715-0.704-1.66-1.224-2.416
			c-0.496-0.721-0.87-1.547-1.385-2.302c-0.494-0.725-0.979-1.475-1.489-2.231c-0.492-0.73-1.999-0.798-2.504-1.555
			c-0.489-0.734-0.772-1.624-1.272-2.382c-0.486-0.738-0.403-1.864-0.898-2.623c-0.483-0.742-0.574-1.747-1.064-2.509
			c-0.48-0.745-2.019-0.823-2.504-1.586c-0.477-0.749-0.806-1.604-1.287-2.369c-0.473-0.752-0.809-1.601-1.285-2.368
			c-0.469-0.756-1.129-1.404-1.6-2.173c-0.465-0.759-0.283-1.92-0.749-2.691c-0.461-0.763-1.431-1.226-1.892-2
			c-0.457-0.766-1.382-1.264-1.837-2.04c-0.452-0.77-0.529-1.767-0.979-2.545c-0.447-0.773-1.143-1.412-1.587-2.193
			c-0.442-0.777,0.219-2.18-0.22-2.964c-0.437-0.781-1.815-1.04-2.249-1.827c-0.432-0.784-1.048-1.474-1.475-2.264
			c-0.426-0.788-0.184-1.937-0.604-2.73c-0.42-0.792-0.299-1.864-0.713-2.66c-0.413-0.796-1.976-1.001-2.381-1.8
			c-0.406-0.8-0.609-1.707-1.008-2.509c-0.399-0.804-0.219-1.892-0.609-2.698c-0.391-0.809-1.33-1.354-1.712-2.164
			c-0.383-0.813-1.035-1.505-1.408-2.318c-0.375-0.818-0.172-1.897-0.534-2.715c-0.365-0.823-0.86-1.586-1.213-2.408
			c-0.355-0.827-0.601-1.699-0.942-2.524c-0.344-0.833-0.84-1.602-1.169-2.431c-0.333-0.838,0.152-1.985-0.165-2.819
			c-0.32-0.843-1.493-1.362-1.796-2.2c-0.307-0.849,0.24-1.988-0.047-2.831c-0.292-0.854-1.277-1.468-1.549-2.315
			c-0.275-0.861,0.009-1.883-0.244-2.736c-0.258-0.867-0.49-1.722-0.724-2.58c-0.238-0.873-1.648-1.438-1.86-2.301
			c-0.216-0.881,0.879-2.057,0.691-2.925c-0.192-0.887-1.616-1.518-1.777-2.39c-0.164-0.892,0.028-1.852-0.102-2.727
			c-0.134-0.898-0.399-1.784-0.495-2.663c-0.099-0.903,0.59-1.868,0.532-2.751c-0.06-0.907-1.125-1.771-1.14-2.654
			c-0.015-0.91,1.435-1.79,1.47-2.672c0.036-0.909,0.176-1.751,0.267-2.629c0.094-0.904-0.265-1.82-0.11-2.689
			c0.16-0.894-0.134-1.219,0.093-2.073c-0.146,0.88-0.176,1.166-0.259,2.079c-0.081,0.888-0.314,1.793-0.337,2.71
			c-0.023,0.891,0.799,1.786,0.828,2.702c0.029,0.891-0.333,1.802-0.257,2.715c0.074,0.889-0.573,1.879-0.456,2.787
			c0.114,0.886,0.738,1.723,0.891,2.625c0.149,0.881,0.831,1.669,1.016,2.564c0.181,0.876,0.265,1.773,0.478,2.662
			c0.209,0.87,0.135,1.819,0.374,2.7c0.234,0.865-0.169,1.93,0.093,2.804c0.257,0.858,1.614,1.385,1.896,2.251
			c0.277,0.853-0.142,1.947,0.159,2.807c0.296,0.847,1.22,1.475,1.537,2.328c0.313,0.842,0.675,1.665,1.008,2.511
			c0.329,0.836,0.655,1.674,1.002,2.514c0.344,0.831,0.759,1.631,1.12,2.465c0.357,0.826,0.199,1.882,0.571,2.71
			c0.37,0.822,0.948,1.552,1.332,2.374c0.381,0.817,0.296,1.861,0.69,2.678c0.392,0.812,1.564,1.246,1.968,2.057
			c0.402,0.808,0.787,1.622,1.2,2.429c0.412,0.804-0.168,2.126,0.253,2.928c0.421,0.8,0.951,1.551,1.38,2.347
			c0.429,0.796,1.342,1.333,1.779,2.125c0.437,0.792,0.918,1.561,1.362,2.349c0.445,0.789,1.31,1.335,1.761,2.118
			c0.452,0.785,0.93,1.55,1.388,2.329c0.459,0.782,1.029,1.491,1.493,2.266c0.466,0.779-0.059,2.152,0.411,2.923
			c0.472,0.775,1.699,1.085,2.174,1.851c0.478,0.772,0.868,1.593,1.348,2.356c0.484,0.769,1.01,1.505,1.495,2.263
			c0.49,0.767,0.153,2.061,0.643,2.816c0.496,0.764,1.612,1.119,2.106,1.87c0.501,0.762,0.8,1.651,1.298,2.398
			c0.507,0.759,1.713,1.038,2.216,1.782c0.512,0.757,0.052,2.165,0.559,2.905c0.517,0.755,1.437,1.224,1.947,1.96
			c0.523,0.753,0.475,1.894,0.989,2.626c0.528,0.751,1.594,1.11,2.111,1.837c0.533,0.75,1.317,1.301,1.837,2.024
			c0.538,0.748,1.351,1.273,1.874,1.991c0.543,0.747,0.357,2.002,0.881,2.714c0.55,0.747,1.454,1.204,1.98,1.911
			c0.556,0.747,0.597,1.849,1.125,2.549c0.563,0.748,1.423,1.233,1.95,1.925c0.573,0.752,1.259,1.367,1.786,2.049
			c0.586,0.759,0.574,1.917,1.096,2.584c0.606,0.775,1.862,0.941,2.372,1.584c0.649,0.818,1.609,1.208,2.085,1.798
			C500.799,501.55,499.508,502.38,500.837,502.627z"/>
		<path class="st3" d="M891.722,790.963c2.774-3.383,1.277-8.354-9.512-9.358c-31.525-2.935-74.885-32.472-77.319-53.127
			c0,0-17.414,6.321-22.924,8.031c-5.51,1.71-22.61-0.95-22.61-0.95s5.222,13.061-6.264,39.82
			c-3.072,7.157-3.801,12.074-2.943,15.584H891.722z"/>
		<path class="st5" d="M560.908,769.12c0.086,1.065,0.915,2.059,1.046,3.132c0.13,1.063,0.767,2.031,0.941,3.095
			c0.173,1.06,0.174,2.118,0.392,3.172c0.218,1.054,0.639,2.023,0.903,3.064c0.265,1.045,0.416,2.078,0.728,3.103
			c0.315,1.034-0.956,2.593-0.593,3.599c0.367,1.018,2.031,1.534,2.449,2.517c0.022,0.051,0.031,0.108,0.048,0.161h10.492
			c-0.013-0.053-0.011-0.113-0.034-0.161c-0.455-0.957-2.928-0.953-3.396-1.909c-0.473-0.967,0.089-2.432-0.375-3.372
			c-0.484-0.983-0.499-2.166-0.95-3.09c-0.492-1.01-0.632-2.115-1.052-3.017c-0.499-1.071-2.069-1.522-2.417-2.381
			c-0.462-0.85-0.694-2.009-0.904-3.204c-0.174-0.997,0.416-2.142,0.384-3.302c-0.029-1.045,0.023-2.1,0.087-3.224
			c0.061-1.07-1.403-2.312-1.278-3.407c0.124-1.087,2.509-1.868,2.678-2.936c0.174-1.103-1.697-2.544-1.495-3.58
			c0.221-1.132,0.926-2.131,1.154-3.124c0.275-1.199,1.393-1.666,1.636-2.56c1.209-1.026,1.092-1.047,2.454-1.859
			c1.362-0.812,1.769-0.13,3.132-0.942c1.363-0.813,0.693-1.937,2.056-2.75c1.364-0.813,2.025,0.294,3.389-0.519
			c1.364-0.813,0.844-1.685,2.207-2.498c1.363-0.813,1.426-0.707,2.789-1.52c1.362-0.812,1.087-1.273,2.45-2.086
			c1.362-0.812,1.83-0.027,3.193-0.84c1.362-0.812,1.183-1.113,2.546-1.925c1.363-0.813,0.904-1.583,2.267-2.396
			c1.364-0.813,1.766-0.138,3.13-0.952c1.364-0.813,1.858,0.016,3.223-0.798c1.363-0.813,1.296-0.926,2.659-1.739
			c1.363-0.813,0.773-1.802,2.136-2.615c1.363-0.813,2.066,0.367,3.429-0.446c1.363-0.813,0.984-1.449,2.348-2.262
			c1.364-0.814,0.784-1.787,2.148-2.601c1.364-0.813,2.025,0.296,3.39-0.518c1.364-0.813,0.57-2.144,1.933-2.957
			s2.186,0.566,3.549-0.247c1.364-0.813,0.851-1.674,2.215-2.487c1.365-0.814,1.996,0.244,3.361-0.57
			c1.364-0.813,0.731-1.875,2.095-2.688c1.364-0.813,2.064,0.361,3.428-0.452c1.364-0.813,1.24-1.021,2.605-1.835
			c1.365-0.814,0.77-1.811,2.135-2.625c1.364-0.813,2.049,0.335,3.413-0.478c1.364-0.813,1.018-1.395,2.382-2.208
			c1.365-0.814,1.104-1.252,2.468-2.066c1.364-0.813,1.107-1.245,2.471-2.058c1.365-0.814,1.982,0.221,3.347-0.593
			c1.365-0.814,1.201-1.088,2.565-1.902c1.365-0.814,0.92-1.56,2.285-2.374c1.365-0.814,2.023,0.29,3.388-0.523
			c1.365-0.814,0.807-1.751,2.172-2.565c1.365-0.814,2.196,0.581,3.561-0.233s1.334-0.865,2.699-1.679
			c1.363-0.813,0.866-1.647,2.229-2.459c1.365-0.814,1.646-0.342,3.011-1.155c1.364-0.813,0.674-1.971,2.038-2.785
			c1.365-0.814,2.109,0.432,3.474-0.382c1.365-0.814,1.603-0.413,2.968-1.227c1.365-0.814,0.301-2.6,1.666-3.414
			c1.366-0.814,1.517-0.56,2.883-1.375s1.971,0.2,3.337-0.614c1.366-0.814,1.317-0.896,2.683-1.711
			c1.365-0.814,1.099-1.261,2.464-2.075c1.366-0.814,1.45-0.674,2.815-1.488c1.366-0.814,1.333-0.87,2.699-1.684
			c1.368-0.816,1.566-0.484,2.934-1.3c1.368-0.816,0.841-2.17,2.395-2.52c0.625,0.874,1.462,2.172,2.064,3.031
			c0.616,0.881,1.3,1.701,1.893,2.566c0.607,0.887,0.28,2.387,0.863,3.258c0.598,0.894,2.64,0.815,3.214,1.692
			c0.59,0.901,1.439,1.63,2.004,2.513c0.581,0.908-0.372,2.773,0.185,3.661c0.572,0.914,0.664,2.097,1.211,2.99
			c0.564,0.919,2.392,1.049,2.931,1.946c0.555,0.925,0.884,1.967,1.415,2.869c0.547,0.93,0.929,1.937,1.452,2.842
			c0.54,0.935,2.113,1.262,2.628,2.171c0.533,0.939-0.484,2.731,0.025,3.641c0.527,0.943,0.753,2.025,1.256,2.937
			c0.522,0.947,1.192,1.786,1.692,2.699c0.52,0.95,1.411,1.671,1.909,2.585c0.519,0.951,0.519,2.161,1.018,3.073
			c0.52,0.952,1.871,1.422,2.374,2.331c0.525,0.95,1.118,1.833,1.628,2.735c0.535,0.946,1.041,1.877,1.564,2.771
			c0.549,0.939,1.833,1.393,2.375,2.274c0.57,0.927-0.424,2.816,0.145,3.678c0.6,0.91,1.288,1.769,1.894,2.607
			c0.639,0.883,1.327,1.751,1.981,2.552c0.687,0.841,1.35,1.756,2.065,2.507c0.745,0.783,2.716,0.258,3.503,0.942
			c0.809,0.703,1.567,1.299,2.434,1.897c0.872,0.601,0.795,2.807,1.739,3.301c0.927,0.485,2.226,0.407,3.235,0.787
			c0.968,0.365,1.93,1.086,2.985,1.354c0.995,0.253,2.125,0.423,3.208,0.59c1.011,0.156,2.132,0.235,3.228,0.315
			c1.02,0.074,2.131-0.174,3.231-0.166c1.023,0.008,2.093-0.359,3.19-0.409c1.024-0.047,2.118,0.216,3.211,0.118
			c1.024-0.091,1.815-1.857,2.902-1.992c1.002-0.258,2.34,1.035,3.385,0.788c1.017-0.24,1.822-1.471,2.86-1.705
			c1.029-0.231,2.178,0.048,3.209-0.182c1.039-0.231,2.172-0.032,3.194-0.266c1.045-0.239,1.972-0.929,2.98-1.176
			c1.053-0.258,1.987-0.844,2.976-1.116c1.061-0.291,1.86-1.187,2.819-1.5c1.069-0.35,2.684,0.98,3.588,0.594
			c1.076-0.459,1.756-1.576,2.535-2.102c1.023-0.69,1.802-1.438,2.179-2.275c0.412-0.913,0.922-1.908,0.373-3.039
			c0.649-0.427,1.498-0.909,2.723-1.45c1.245-0.55,2.634-1.36,2.197-2.711c-0.233-0.175-0.909-1.065-1.321-2.807
			c-0.203-0.86-0.698-1.835-0.939-3.015c-0.191-0.937-0.958-1.864-1.171-2.979c-0.185-0.969-0.474-1.989-0.675-3.077
			c-0.181-0.985,0.729-2.217,0.536-3.289c-0.179-0.996-0.908-1.931-1.096-2.995c-0.177-1.004-0.897-1.943-1.081-3
			c-0.177-1.01,0.363-2.169,0.18-3.221c-0.176-1.015,0.673-2.226,0.491-3.274c-0.177-1.018-1.648-1.828-1.829-2.873
			c-0.177-1.021,1.128-2.311,0.947-3.353c-0.178-1.024-2.548-1.676-2.729-2.715c-0.179-1.026,1.085-2.31,0.903-3.348
			c-0.18-1.028-1.685-1.828-1.867-2.864c-0.181-1.03-0.087-2.11-0.27-3.143c-0.183-1.032-0.396-2.059-0.581-3.091
			c-0.186-1.035,1.281-2.367,1.093-3.397c-0.188-1.036-1.277-1.904-1.467-2.931c-0.191-1.037-0.115-2.12-0.307-3.144
			c-0.195-1.039-1.35-1.888-1.546-2.909c-0.199-1.041,1.086-2.358,0.888-3.375c-0.204-1.042-0.543-2.048-0.746-3.061
			c-0.21-1.045-2.104-1.729-2.313-2.738c-0.217-1.049,1.071-2.39,0.856-3.394c-0.226-1.052-0.901-1.981-1.124-2.976
			c-0.237-1.057,0.302-2.263,0.069-3.248c-0.252-1.064-1.845-1.754-2.093-2.724c-0.275-1.076,0.411-2.345,0.144-3.291
			c-0.31-1.099-2.04-1.652-2.339-2.554c-0.384-1.16,0.232-2.467-0.128-3.258c-0.712-1.564-1.149-1.594-1.744-1.437
			c-1.211,0.217-2.164,0.568-1.962,1.777c0.266,1.587,1.15,1.438,1.417,3.025c0.266,1.587-1.73,1.923-1.464,3.51
			c0.267,1.588,0.952,1.473,1.219,3.061c0.266,1.587,0.977,1.468,1.243,3.055c0.267,1.588,1.087,1.45,1.354,3.037
			c0.267,1.588-0.828,1.772-0.561,3.36c0.266,1.587,0.745,1.507,1.012,3.094c0.267,1.588,0.153,1.607,0.419,3.195
			c0.266,1.588-0.641,1.74-0.374,3.328c0.267,1.588,1.372,1.403,1.639,2.991c0.267,1.588-0.565,1.727-0.298,3.315
			c0.267,1.588,0.693,1.517,0.959,3.105c0.267,1.588-0.072,1.645,0.194,3.233c0.267,1.589,0.138,1.61,0.405,3.199
			c0.266,1.586,1.225,1.425,1.491,3.011c0.267,1.588,0.463,1.555,0.729,3.143c0.266,1.587-1.644,1.908-1.378,3.495
			c0.267,1.589,2.145,1.273,2.412,2.862c0.266,1.588-1.403,1.868-1.136,3.456c0.267,1.589,0.668,1.521,0.934,3.11
			c0.267,1.589,0.789,1.502,1.055,3.091c0.267,1.589-0.396,1.701-0.13,3.29c0.267,1.589,1.171,1.437,1.438,3.027
			c0.267,1.589,0.492,1.551,0.759,3.14c0.267,1.589,0.834,1.494,1.101,3.083c0.267,1.59-2.005,1.972-1.738,3.562
			c0.267,1.591,1.729,1.346,1.996,2.938c0.267,1.591-0.317,1.578-0.438,3.187c-0.801,0.38-0.991,1.079-2.051,1.542
			c-0.87,0.38-2.146,0.003-3.161,0.422c-0.903,0.372-1.388,1.926-2.386,2.318c-0.923,0.363-1.908,0.695-2.898,1.067
			c-0.939,0.352-2.2-0.092-3.186,0.26c-0.952,0.34-1.559,1.743-2.544,2.077c-0.963,0.327-1.938,0.706-2.923,1.021
			c-0.975,0.312-2.194-0.111-3.18,0.183c-0.987,0.294-2.156-0.062-3.144,0.209c-0.998,0.274-2.092,0.091-3.081,0.336
			c-1.01,0.25-1.91,0.825-2.9,1.038c-1.024,0.22-2.017,0.391-3.007,0.565c-1.041,0.183-1.925,1.167-2.915,1.29
			c-1.059,0.132-2.105,0.137-3.089,0.191c-1.08,0.06-2.08-0.871-3.048-0.917c-1.104-0.053-2.327,1.344-3.253,1.135
			c-1.096-0.247-1.098-2.081-1.894-2.576c-0.528-0.909-1.956-1.018-2.502-1.941c-0.535-0.905-1.001-1.864-1.552-2.783
			c-0.541-0.902-1.948-1.291-2.504-2.206c-0.547-0.9,0.392-2.717-0.169-3.629c-0.551-0.898-2.318-1.056-2.882-1.966
			c-0.555-0.896,0.036-2.515-0.53-3.422c-0.558-0.895-1.539-1.535-2.107-2.441c-0.561-0.894-1.277-1.698-1.847-2.602
			c-0.563-0.893-0.445-2.224-1.016-3.127c-0.565-0.892-1.265-1.707-1.837-2.608c-0.566-0.892-0.978-1.889-1.551-2.79
			c-0.567-0.892-2.336-1.026-2.908-1.927c-0.567-0.892-0.877-1.954-1.449-2.854c-0.567-0.893-1.655-1.46-2.226-2.36
			c-0.567-0.893-0.41-2.25-0.98-3.151c-0.566-0.894-0.545-2.163-1.114-3.064c-0.565-0.895-2.668-0.826-3.234-1.728
			c-0.564-0.896,0.027-2.521-0.538-3.424c-0.562-0.898-1.713-1.431-2.276-2.335c-0.56-0.899-0.52-2.174-1.08-3.079
			c-0.558-0.901-1.86-1.346-2.417-2.252c-0.555-0.903-0.629-2.104-1.184-3.012c-0.552-0.905-1.787-1.399-2.338-2.309
			c-0.549-0.906-0.077-2.43-0.624-3.341c-0.545-0.908-1.642-1.489-2.185-2.403c-0.542-0.911-0.831-1.974-1.37-2.889
			c-0.538-0.914-0.59-2.112-1.124-3.03c-0.534-0.917-2.068-1.256-2.598-2.176c-0.529-0.92-0.872-1.95-1.396-2.874
			c-0.524-0.923-1.652-1.511-2.172-2.437c-0.519-0.926-0.681-2.058-1.195-2.988c-0.514-0.929-0.678-2.054-1.186-2.987
			s-0.066-2.377-0.567-3.313c-0.502-0.936-2.215-1.229-2.71-2.168c-0.495-0.94-0.613-2.08-1.101-3.024
			c-0.488-0.944-1.426-1.661-1.907-2.607c-0.481-0.948,0.633-2.694,0.16-3.644c-0.473-0.952-1.092-1.821-1.557-2.776
			c-0.465-0.956-1.704-1.534-2.159-2.493c-0.456-0.96-0.286-2.21-0.733-3.172c-0.448-0.965-1.507-1.644-1.944-2.61
			c-0.438-0.969-0.898-1.927-1.324-2.898c-0.428-0.974-1.9-1.5-2.317-2.476c-0.417-0.978-0.62-2.058-1.025-3.038
			c-0.406-0.983,0.857-2.643,0.463-3.628c-0.395-0.988-0.715-1.991-1.097-2.98c-0.383-0.993-0.587-2.036-0.955-3.03
			c-0.37-0.998-2.703-1.28-3.058-2.279c-0.356-1.003,0.635-2.475,0.294-3.479c-0.342-1.008-1.77-1.656-2.096-2.664
			c-0.327-1.013-0.833-1.98-1.144-2.994c-0.312-1.018,1.279-2.598,0.985-3.616c-0.295-1.023-1.738-1.714-2.014-2.737
			c-0.278-1.028,0.114-2.224-0.144-3.252c-0.26-1.033-0.04-2.163-0.28-3.196c-0.241-1.037-1.434-1.849-1.654-2.886
			c-0.221-1.042-1.611-1.855-1.811-2.896c-0.2-1.046,1.783-2.484,1.605-3.529c-0.178-1.049-1.776-1.863-1.931-2.911
			c-0.156-1.053,0.651-2.232,0.52-3.284c-0.132-1.056-1.62-1.959-1.726-3.013c-0.107-1.059,0.694-2.204,0.613-3.261
			c-0.081-1.061,0.787-2.166,0.733-3.224c-0.054-1.062-2.134-2.045-2.161-3.105c-0.026-1.063,0.531-2.151,0.533-3.211
			c0.002-1.063-0.351-2.148-0.319-3.208c0.032-1.062,1.354-2.071,1.417-3.13c0.063-1.061-1.234-2.227-1.14-3.284
			c0.094-1.058,1.081-2.037,1.207-3.091c0.126-1.054,0.617-2.054,0.776-3.104c0.159-1.049,0.654-2.027,0.846-3.072
			c0.192-1.043,0.862-1.962,1.088-3.001c0.225-1.036-0.396-2.249-0.136-3.28c0.259-1.028-0.272-2.275,0.022-3.298
			c0.292-1.018,1.099-1.893,1.426-2.906c0.326-1.007,1.349-1.704,1.71-2.706c0.629-1.132-0.984-1.923-1.905-2.505
			c-0.911-0.577-0.891-0.627-1.66,0.479c-0.622,0.823-1.122,1.633-1.667,2.578c-0.515,0.893-0.908,1.762-1.358,2.755
			c-0.426,0.941-2.027,1.396-2.398,2.418c-0.353,0.973-0.611,2.015-0.915,3.055c-0.292,0.997-0.068,2.145-0.318,3.198
			c-0.241,1.013-1.535,1.827-1.739,2.886c-0.197,1.025-0.556,2.069-0.721,3.132c-0.16,1.034-0.422,2.099-0.552,3.165
			c-0.128,1.041-0.284,2.119-0.386,3.186c-0.099,1.046-0.045,2.138-0.121,3.206c-0.074,1.05,0.995,2.184,0.943,3.251
			c-0.052,1.053,0.63,2.13,0.598,3.195c-0.031,1.055-1.906,2.076-1.919,3.141c-0.013,1.058,0.345,2.132,0.349,3.195
			c0.004,1.059,1.441,2.103,1.46,3.165c0.019,1.061-1.388,2.155-1.355,3.215c0.033,1.062,0.636,2.105,0.682,3.164
			c0.047,1.064,0.97,2.076,1.029,3.132c0.059,1.065-1.786,2.242-1.716,3.295c0.071,1.066,1.289,2.048,1.369,3.099
			c0.082,1.067-0.075,2.145,0.015,3.193c0.092,1.068-0.308,2.174-0.208,3.218c0.102,1.07,0.098,2.144,0.207,3.185
			c0.112,1.073,0.907,2.058,1.025,3.095c0.122,1.076,0.962,2.044,1.087,3.075c0.131,1.079-0.035,2.165,0.098,3.191
			c0.141,1.085,0.432,2.114,0.572,3.131c0.15,1.092,0.482,2.113,0.629,3.12c0.161,1.105-1.496,2.429-1.344,3.42
			c0.174,1.128,1.153,2.056,1.31,3.02c0.192,1.18-0.122,2.318,0.034,3.225c0.244,1.414,0.322,2.09,0.443,2.741
			c-0.437,1.509,1.312,2.116,0.733,3.577c-0.579,1.462-2.498,0.702-3.076,2.163c-0.579,1.463-0.274,1.583-0.853,3.046
			c-0.579,1.462,0.076,1.721-0.503,3.182c-0.578,1.461-0.741,1.397-1.319,2.858c-0.579,1.462-0.19,1.616-0.769,3.078
			c-0.579,1.462-0.468,1.506-1.047,2.969c-0.579,1.462-1.843,0.961-2.422,2.423c-0.579,1.462-0.198,1.613-0.777,3.075
			c-0.579,1.463-0.767,1.388-1.346,2.851c-0.579,1.462,0.585,1.923,0.006,3.385c-0.579,1.463-0.583,1.461-1.163,2.923
			c-0.579,1.462-1.257,1.194-1.836,2.656c-0.579,1.462,0.489,1.885-0.09,3.348c-0.579,1.462-0.619,1.447-1.198,2.909
			c-0.579,1.463-2.155,0.839-2.734,2.302c-0.579,1.462,0.178,1.762-0.401,3.225c-0.579,1.462,0.108,1.734-0.471,3.197
			c-0.578,1.461-2.147,0.84-2.726,2.301c-0.579,1.463-0.125,1.642-0.704,3.105c-0.579,1.462-0.478,1.501-1.057,2.963
			c-0.579,1.463-0.232,1.601-0.811,3.064c-0.579,1.462-0.964,1.31-1.543,2.772c-0.579,1.463-1.101,1.256-1.681,2.719
			c-0.579,1.464,0.871,2.038,0.292,3.501c-0.579,1.464-2.025,0.891-2.605,2.355c-0.579,1.464-0.811,1.372-1.391,2.835
			c-0.579,1.463-0.428,1.523-1.007,2.986c-0.579,1.463,0.728,1.981,0.149,3.444c-0.58,1.464-0.252,1.594-0.831,3.057
			c-0.58,1.466-0.626,1.448-1.206,2.914s-1.58,1.064-2.18,2.523c-0.11,0.156-1.227-0.003-2.831,0.958
			c-0.768,0.46-1.542,1.225-2.591,1.837c-0.836,0.488-1.643,1.206-2.634,1.779c-0.864,0.499-1.35,1.782-2.318,2.338
			c-0.88,0.505-1.998,0.687-2.953,1.234c-0.89,0.509-1.436,1.691-2.382,2.232c-0.897,0.512-2.212,0.348-3.152,0.885
			c-0.902,0.515-1.853,0.988-2.789,1.522c-0.905,0.516-1.799,1.087-2.73,1.619c-0.909,0.518-1.438,1.729-2.367,2.259
			c-0.912,0.52-2.585-0.272-3.511,0.257c-0.915,0.522-1.277,2.026-2.201,2.554c-0.917,0.524-2.458-0.035-3.379,0.492
			c-0.92,0.526-0.896,2.702-1.815,3.229c-0.922,0.529-1.702,1.299-2.619,1.826c-0.924,0.531-2.032,0.731-2.946,1.258
			c-0.925,0.533-1.93,0.912-2.84,1.438c-0.927,0.536-2.436,0.048-3.342,0.575c-0.93,0.54-2.024,0.772-2.926,1.299
			c-0.932,0.544-0.811,2.852-1.708,3.378c-0.935,0.549-2.81-0.542-3.7-0.015c-0.94,0.556-2.035,0.799-2.916,1.326
			c-0.946,0.565-1.577,1.585-2.445,2.111c-0.956,0.58-1.174,2.256-2.023,2.781c-0.976,0.604-2.815-0.319-3.63,0.203
			c-1.026,0.657-1.254,2.268-1.989,2.775c-1.543,1.066-2.862,1.53-2.842,1.791c-0.311,0.982-0.423,2.063-0.667,3.154
			c-0.228,1.015-0.424,2.086-0.593,3.181c-0.16,1.035,0.287,2.17,0.181,3.266c-0.102,1.048-0.77,2.074-0.822,3.168
			c-0.05,1.057-0.318,2.141-0.32,3.231c-0.002,1.062,0.864,2.122,0.908,3.208C561.464,766.926,560.82,768.04,560.908,769.12z
			 M647.821,692.705c0.381-0.927,1.811-1.489,2.236-2.521c0.387-0.941,0.342-2.109,0.762-3.129c0.391-0.95,0.902-1.889,1.319-2.901
			c0.394-0.957,1.649-1.589,2.064-2.594c0.396-0.961-0.235-2.371,0.178-3.372c0.398-0.964,1.581-1.623,1.993-2.619
			c0.399-0.967,0.405-2.113,0.816-3.106c0.401-0.97,1.124-1.82,1.534-2.811c0.402-0.972,0.929-1.903,1.338-2.892
			c0.403-0.974-0.088-2.328,0.321-3.315c0.404-0.976,0.628-2.034,1.037-3.019c0.406-0.978,2.602-1.216,3.011-2.2
			c0.406-0.979-0.945-2.69-0.536-3.672c0.408-0.981,2.379-1.313,2.788-2.294c0.409-0.982,0.443-2.12,0.851-3.098
			c0.41-0.984,0.332-2.169,0.74-3.146c0.412-0.985,1.442-1.707,1.85-2.682c0.413-0.987-0.022-2.322,0.386-3.295
			c0.414-0.988,0.615-2.057,1.023-3.028c0.416-0.99,0.298-2.193,0.705-3.16c0.418-0.992,2.954-1.077,3.361-2.041
			c0.42-0.995-0.531-2.551-0.124-3.511c0.423-0.999,1.739-1.595,2.146-2.551c0.427-1.003,0.017-2.333,0.423-3.284
			c0.431-1.007,1.627-1.649,2.032-2.591c0.437-1.015,0.3-1.841,0.704-2.771c0.527,0.94,1.041,1.476,1.549,2.375
			c0.53,0.939,1.291,1.721,1.799,2.617c0.533,0.94,1.553,1.573,2.062,2.468c0.536,0.941,1.143,1.809,1.653,2.702
			c0.538,0.943,0.094,2.412,0.603,3.303c0.54,0.945,1.545,1.586,2.052,2.475c0.541,0.948,1.538,1.595,2.041,2.481
			c0.541,0.953,0.424,2.233,0.921,3.118c0.539,0.96,0.139,2.386,0.626,3.271c0.534,0.97,2.189,1.269,2.66,2.154
			c0.525,0.986-0.328,2.607,0.119,3.495c0.509,1.01,2.973,1.002,3.38,1.897c0.475,1.046-0.46,2.605-0.124,3.511
			c0.407,1.099,2.014,1.778,2.216,2.704c0.252,1.157,0.084,2.476,0.012,3.424c-0.083,1.101-0.46,2.424-0.984,3.341
			c-0.483,0.847-2.44,0.589-3.302,1.366c-0.709,0.639-0.94,1.952-1.908,2.594c-0.808,0.536-1.845,0.846-2.834,1.415
			c-0.853,0.49-1.305,1.855-2.294,2.388c-0.877,0.472-2.518-0.37-3.501,0.149c-0.888,0.468-1.757,1.08-2.733,1.595
			c-0.894,0.472-1.015,2.483-1.983,3.001c-0.895,0.479-2.551-0.373-3.509,0.152c-0.894,0.489-1.594,1.404-2.543,1.937
			c-0.891,0.5-2.204,0.332-3.143,0.874c-0.888,0.513-1.099,2.239-2.03,2.793c-0.883,0.525-2.296,0.221-3.218,0.786
			c-0.877,0.537-0.98,2.361-1.893,2.936c-0.872,0.549-2.313,0.237-3.218,0.823c-0.867,0.561-1.335,1.76-2.232,2.356
			c-0.86,0.572-2.174,0.499-3.061,1.105c-0.855,0.584-1.208,1.918-2.088,2.535c-0.849,0.595-2.881-0.446-3.754,0.181
			c-0.843,0.605-1.295,1.793-2.161,2.429c-0.837,0.615-1.58,1.849-2.438,2.494C647.891,695.443,647.387,693.76,647.821,692.705z"/>
	</g>
	<g>
		<path class="st0" d="M1012.58,686.403c0.893-0.255,1.822,0.261,2.077,1.154l4.457,15.599c0.255,0.893-0.261,1.822-1.154,2.077
			s-1.822-0.261-2.077-1.154l-4.457-15.599C1011.171,687.587,1011.687,686.658,1012.58,686.403z"/>
		<path class="st0" d="M1019.227,689.652c0.484-0.138,1.024-0.059,1.461,0.264c0.746,0.551,0.905,1.603,0.354,2.349l-9.897,13.408
			c-0.551,0.748-1.602,0.905-2.349,0.354c-0.746-0.551-0.905-1.603-0.354-2.349l9.897-13.408
			C1018.567,689.958,1018.883,689.75,1019.227,689.652z"/>
		<path class="st0" d="M1008.275,691.351c0.379-0.108,0.795-0.085,1.177,0.095l13.219,6.232c0.84,0.396,1.2,1.398,0.804,2.236
			c-0.397,0.844-1.398,1.2-2.236,0.804l-13.219-6.232c-0.84-0.396-1.2-1.398-0.804-2.236
			C1007.432,691.793,1007.825,691.479,1008.275,691.351z"/>
	</g>
	<g>
		<path class="st0" d="M798.373,270.535c-1.052,0-1.903-0.851-1.903-1.903v-14.947c0-1.052,0.851-1.903,1.903-1.903
			c1.052,0,1.903,0.851,1.903,1.903v14.947C800.276,269.684,799.425,270.535,798.373,270.535z"/>
		<path class="st0" d="M804.289,263.062h-14.012c-1.052,0-1.903-0.851-1.903-1.903s0.851-1.903,1.903-1.903h14.012
			c1.052,0,1.903,0.851,1.903,1.903S805.341,263.062,804.289,263.062z"/>
	</g>
	<g>
		<path class="st0" d="M174.6,685.736c-1.052,0-1.903-0.851-1.903-1.903v-14.947c0-1.052,0.851-1.903,1.903-1.903
			c1.052,0,1.903,0.851,1.903,1.903v14.947C176.502,684.885,175.651,685.736,174.6,685.736z"/>
		<path class="st0" d="M180.516,678.262h-14.012c-1.052,0-1.903-0.851-1.903-1.903s0.851-1.903,1.903-1.903h14.012
			c1.052,0,1.903,0.851,1.903,1.903S181.568,678.262,180.516,678.262z"/>
	</g>
	<g>
		<path class="st0" d="M155.155,544.232c0.504-0.971,1.697-1.35,2.668-0.846l13.805,7.158c0.971,0.504,1.35,1.697,0.846,2.668
			c-0.504,0.971-1.697,1.35-2.668,0.846l-13.805-7.158C155.03,546.397,154.651,545.203,155.155,544.232z"/>
		<path class="st0" d="M159.224,553.275l6.71-12.941c0.504-0.971,1.697-1.35,2.668-0.846c0.971,0.504,1.35,1.697,0.846,2.669
			l-6.71,12.941c-0.504,0.971-1.697,1.35-2.668,0.846C159.099,555.44,158.72,554.246,159.224,553.275z"/>
	</g>
</g>
</svg>
