<?xml version="1.0" encoding="utf-8"?>
<!-- Generator: Adobe Illustrator 25.2.2, SVG Export Plug-In . SVG Version: 6.00 Build 0)  -->
<svg version="1.1" xmlns="http://www.w3.org/2000/svg" xmlns:xlink="http://www.w3.org/1999/xlink" x="0px" y="0px"
	 viewBox="0 0 1000 454.999" style="enable-background:new 0 0 1000 454.999;" xml:space="preserve">
<style type="text/css">
	.st0{fill:none;stroke:#FECD31;stroke-width:5;}
	.st1{fill:none;stroke:#52C4C0;stroke-width:5;}
	.st2{fill:none;stroke:#FF7171;stroke-width:5;}
	.st3{fill:#FFFFFF;}
	.st4{fill:#52C4C0;}
	.st5{fill:#F6CEBF;}
	.st6{fill:#FF7171;}
</style>
<g id="Layer_2">
</g>
<g id="Layer_1">
	<line id="Line_14" class="st0" x1="188.692" y1="82.437" x2="244.988" y2="11.811"/>
	<line id="Line_15" class="st1" x1="890.467" y1="198.741" x2="946.763" y2="128.114"/>
	<line id="Line_16" class="st0" x1="913.889" y1="442.989" x2="970.186" y2="372.363"/>
	<line id="Line_17" class="st0" x1="728.624" y1="208.592" x2="784.92" y2="137.966"/>
	<line id="Line_18" class="st2" x1="584.812" y1="78.087" x2="641.109" y2="7.461"/>
	<line id="Line_19" class="st2" x1="184.597" y1="376.457" x2="240.894" y2="305.831"/>
	<line id="Line_20" class="st0" x1="10.547" y1="335.002" x2="66.843" y2="264.376"/>
	<circle id="Ellipse_86" class="st3" cx="207.773" cy="129.524" r="6.366"/>
	<circle id="Ellipse_87" class="st3" cx="927.173" cy="65.42" r="5.758"/>
	<circle id="Ellipse_90" class="st4" cx="33.843" cy="187.898" r="10.525"/>
	<circle id="Ellipse_88" class="st3" cx="982.213" cy="396.161" r="11.515"/>
	<circle id="Ellipse_89" class="st3" cx="226.308" cy="433.521" r="13.562"/>
	<rect id="Rectangle_74" x="149.076" y="53.313" class="st5" width="14.026" height="14.026"/>
	<rect id="Rectangle_75" x="779.802" y="45.333" class="st5" width="8.177" height="8.177"/>
	<rect id="Rectangle_76" x="764.551" y="402.558" class="st6" width="12.181" height="12.181"/>
	<rect id="Rectangle_78" x="973.854" y="178.396" class="st5" width="6.567" height="6.567"/>
	<rect id="Rectangle_77" x="89.59" y="385.669" class="st5" width="12.099" height="12.099"/>
</g>
</svg>
