<svg version="1.1" id="Layer_1" xmlns="http://www.w3.org/2000/svg" xmlns:xlink="http://www.w3.org/1999/xlink" x="0px" y="0px"
	 viewBox="0 0 340 340" style="enable-background:new 0 0 340 340;" xml:space="preserve">
<style type="text/css">
	.st0{fill:#567C49;}
	.st1{fill:#FECD31;}
	.st2{fill:#FFFFFF;}
	.st3{fill:#F6CEBF;}
	.st4{fill:#D0A798;}
</style>
<path id="Path_9" class="st0" d="M334.078,318.428c1.134,0.765,2.267,1.529,3.401,2.294c0.298,0.238,0.635,0.422,0.996,0.546
	c0.146,0.058,0.281,0.139,0.401,0.24c0.578,0.386,1.152,0.777,1.731,1.162c0.284,0.219,0.6,0.392,0.938,0.513
	c0.205,0.091,0.397,0.207,0.573,0.346c0.543,0.394,1.12,0.738,1.724,1.03c0.399,0.204,0.776,0.448,1.126,0.729
	c0.192,0.155,0.413,0.272,0.649,0.344c0.088,0.017,0.172,0.053,0.244,0.107c0.632,0.51,1.4,0.787,2.074,1.226
	c0.143,0.109,0.305,0.19,0.477,0.24c0.088,0.017,0.172,0.05,0.248,0.098c0.647,0.394,1.32,0.744,2.014,1.049
	c0.596,0.301,1.182,0.619,1.797,0.881c0.133,0.038,0.21,0.178,0.171,0.31c-0.008,0.026-0.019,0.051-0.034,0.073
	c-0.221,0.415-0.504,0.795-0.84,1.124c-0.084,0.073-0.16,0.155-0.228,0.244c-1.06,1.326-2.331,2.47-3.761,3.385
	c-0.757,0.475-1.557,0.876-2.391,1.198c-0.98,0.379-2.01,0.614-3.057,0.699c-0.823,0.082-1.653,0.068-2.473-0.043
	c-0.929-0.145-1.842-0.378-2.728-0.696c-0.452-0.16-0.882-0.429-1.321-0.635c-0.616-0.316-1.209-0.675-1.776-1.072
	c-0.218-0.118-0.408-0.281-0.558-0.477c-0.05-0.074-0.116-0.137-0.193-0.183c-0.597-0.432-1.141-0.932-1.621-1.489
	c-0.673-0.715-1.263-1.504-1.758-2.352c-0.542-0.847-0.984-1.754-1.318-2.703c-0.405-1.043-0.649-2.141-0.726-3.257
	c-0.018-0.378-0.099-0.749-0.119-1.132c-0.044-0.781-0.01-1.565,0.103-2.34c0.137-1.181,0.564-2.311,1.243-3.288
	c0.174-0.235,0.323-0.488,0.498-0.719c0.101-0.175,0.324-0.234,0.498-0.134c0.011,0.006,0.022,0.013,0.032,0.02
	c0.156,0.086,0.303,0.192,0.451,0.292C331.736,316.849,332.907,317.639,334.078,318.428L334.078,318.428z"/>
<path id="Path_331" class="st1" d="M-6.717,203.059c0.729-0.901,1.459-1.803,2.189-2.704c0.224-0.234,0.405-0.506,0.536-0.802
	c0.06-0.119,0.138-0.228,0.233-0.322c0.369-0.46,0.742-0.916,1.11-1.377c0.206-0.224,0.375-0.478,0.503-0.754
	c0.091-0.166,0.204-0.32,0.334-0.458c0.372-0.43,0.706-0.892,0.997-1.38c0.202-0.322,0.436-0.622,0.699-0.897
	c0.145-0.151,0.26-0.328,0.338-0.523c0.02-0.074,0.057-0.141,0.107-0.198c0.424-0.532,0.82-1.086,1.187-1.659
	c0.102-0.113,0.183-0.244,0.238-0.386c0.021-0.073,0.055-0.142,0.102-0.202c0.38-0.517,0.726-1.06,1.034-1.622
	c0.299-0.481,0.61-0.953,0.877-1.453c0.042-0.109,0.165-0.164,0.274-0.122c0.022,0.008,0.042,0.02,0.059,0.035
	c0.335,0.217,0.634,0.485,0.888,0.793c0.056,0.076,0.119,0.147,0.19,0.211c1.042,0.993,1.914,2.151,2.582,3.427
	c0.345,0.674,0.625,1.38,0.836,2.107c0.248,0.856,0.371,1.743,0.365,2.634c0.009,0.701-0.065,1.401-0.219,2.086
	c-0.191,0.774-0.454,1.527-0.786,2.252c-0.168,0.369-0.427,0.714-0.634,1.069c-0.313,0.497-0.659,0.972-1.037,1.421
	c-0.115,0.175-0.266,0.324-0.443,0.437c-0.066,0.037-0.124,0.088-0.169,0.15c-0.409,0.472-0.871,0.895-1.378,1.26
	c-0.653,0.516-1.364,0.956-2.117,1.312c-0.756,0.395-1.555,0.702-2.381,0.913c-0.911,0.265-1.856,0.391-2.804,0.374
	c-0.32-0.012-0.64,0.029-0.965,0.017c-0.664-0.02-1.324-0.108-1.97-0.262c-0.988-0.203-1.911-0.647-2.686-1.292
	c-0.185-0.164-0.387-0.308-0.571-0.473c-0.14-0.098-0.174-0.291-0.076-0.431c0.006-0.009,0.013-0.018,0.021-0.026
	c0.084-0.126,0.185-0.241,0.28-0.36c0.753-0.93,1.507-1.861,2.26-2.792L-6.717,203.059z"/>
<path id="Path_330" class="st0" d="M257.997,322.545c-0.671-0.09-1.315-0.323-1.888-0.683c-0.669-0.342-1.307-0.742-1.907-1.195
	c-0.713-0.53-1.382-1.117-2-1.755c-0.386-0.421-0.822-0.799-1.18-1.242c-0.552-0.624-0.943-1.374-1.137-2.184
	c-0.043-0.253-0.05-0.51-0.021-0.765c0.061-0.794,0.392-1.543,0.937-2.122c0.47-0.535,1.011-1.002,1.608-1.389
	c0.621-0.385,1.274-0.716,1.951-0.99c0.925-0.403,1.911-0.646,2.918-0.718c0.665-0.079,1.337-0.078,2.002,0.004
	c0.724,0.119,1.401,0.436,1.957,0.915c0.929,0.784,1.569,1.858,1.814,3.049c0.166,0.712,0.227,1.444,0.181,2.173
	c0,0.354-0.02,0.708-0.062,1.059c-0.044,0.232-0.106,0.46-0.185,0.683c-0.135,0.367-0.207,0.757-0.33,1.133
	c-0.253,0.892-0.638,1.74-1.144,2.517c-0.485,0.69-1.081,1.263-1.94,1.47C259.058,322.644,258.518,322.658,257.997,322.545z"/>
<path id="Path_335" class="st2" d="M275.412,21.957c-0.588-0.07-1.154-0.265-1.66-0.572c-0.59-0.291-1.153-0.632-1.683-1.02
	c-0.63-0.454-1.222-0.958-1.771-1.508c-0.344-0.363-0.729-0.688-1.047-1.07c-0.491-0.538-0.842-1.188-1.023-1.893
	c-0.041-0.22-0.05-0.445-0.028-0.668c0.043-0.695,0.323-1.354,0.792-1.868c0.403-0.473,0.87-0.889,1.387-1.235
	c0.538-0.345,1.104-0.643,1.693-0.891c0.803-0.364,1.663-0.59,2.541-0.666c0.581-0.078,1.168-0.085,1.751-0.022
	c0.635,0.095,1.23,0.363,1.723,0.774c0.823,0.674,1.396,1.604,1.626,2.642c0.154,0.62,0.217,1.259,0.187,1.897
	c0.005,0.309-0.009,0.618-0.04,0.925c-0.035,0.203-0.086,0.404-0.153,0.599c-0.114,0.323-0.172,0.664-0.273,0.995
	c-0.209,0.783-0.535,1.53-0.967,2.216C277.846,21.655,276.617,22.205,275.412,21.957z"/>
<path id="Path_334" class="st3" d="M19.048,329.259c0.011,0.522-0.09,1.041-0.297,1.52c-0.182,0.551-0.411,1.085-0.684,1.595
	c-0.319,0.607-0.687,1.187-1.1,1.733c-0.275,0.344-0.511,0.722-0.806,1.047c-0.41,0.495-0.935,0.883-1.529,1.128
	c-0.188,0.063-0.383,0.099-0.58,0.107c-0.612,0.048-1.222-0.116-1.729-0.462c-0.463-0.295-0.883-0.652-1.249-1.061
	c-0.367-0.427-0.697-0.886-0.986-1.369c-0.417-0.657-0.719-1.38-0.894-2.138c-0.139-0.498-0.218-1.01-0.234-1.527
	c0.005-0.566,0.166-1.12,0.465-1.6c0.488-0.801,1.23-1.416,2.109-1.745c0.522-0.212,1.072-0.347,1.633-0.4
	c0.27-0.042,0.542-0.069,0.815-0.079c0.182,0.006,0.364,0.026,0.543,0.06c0.296,0.06,0.602,0.068,0.902,0.117
	c0.71,0.086,1.402,0.28,2.054,0.573C18.485,327.168,19.116,328.174,19.048,329.259L19.048,329.259z"/>
<path id="Path_332" class="st1" d="M25.974,10.325c-0.495-0.149-0.953-0.402-1.342-0.744c-0.463-0.34-0.896-0.719-1.294-1.133
	c-0.474-0.486-0.907-1.011-1.296-1.567c-0.24-0.364-0.523-0.703-0.739-1.08c-0.341-0.538-0.544-1.151-0.593-1.786
	c-0.002-0.196,0.024-0.391,0.077-0.58c0.143-0.592,0.484-1.116,0.966-1.487c0.419-0.346,0.884-0.633,1.382-0.852
	c0.516-0.215,1.048-0.386,1.593-0.51c0.747-0.192,1.521-0.255,2.289-0.188c0.511,0.021,1.019,0.104,1.51,0.246
	c0.532,0.178,1.004,0.498,1.366,0.927c0.606,0.704,0.958,1.592,0.999,2.521c0.038,0.557-0.005,1.117-0.127,1.662
	c-0.043,0.267-0.102,0.531-0.175,0.792c-0.061,0.17-0.135,0.335-0.222,0.493c-0.146,0.26-0.249,0.546-0.386,0.815
	c-0.299,0.642-0.693,1.236-1.169,1.76C28.117,10.434,26.976,10.721,25.974,10.325L25.974,10.325z"/>
<path id="Path_17" class="st4" d="M75.302,31.894c0-0.515,0.001-0.925,0-1.335c-0.011-0.705,0.055-1.409,0.197-2.099
	c0.072-0.322,0.178-0.636,0.316-0.936c0.092-0.287,0.362-0.479,0.663-0.473c0.252,0.034,0.465,0.203,0.557,0.44
	c0.233,0.44,0.392,0.915,0.473,1.406c0.161,0.939,0.321,1.877,0.464,2.818c0.046,0.296,0.184,0.444,0.478,0.443
	c0.373,0,0.746-0.011,1.118-0.01c1.45,0.003,2.899,0.007,4.349,0.013c0.459-0.022,0.913,0.106,1.294,0.363
	c0.296,0.223,0.356,0.645,0.132,0.941c-0.012,0.016-0.025,0.031-0.038,0.046c-0.29,0.303-0.674,0.497-1.09,0.549
	c-0.689,0.141-1.385,0.25-2.082,0.342c-1.231,0.163-2.466,0.296-3.698,0.46c-0.576,0.076-0.62,0.134-0.565,0.72
	c0.133,1.405,0.153,2.813,0.156,4.221c0.031,0.331-0.017,0.666-0.138,0.976c-0.076,0.198-0.255,0.339-0.465,0.368
	c-0.212,0.015-0.415-0.092-0.522-0.276c-0.209-0.359-0.335-0.761-0.37-1.175c-0.106-0.821-0.205-1.643-0.307-2.465
	c-0.057-0.452-0.106-0.905-0.174-1.356c-0.063-0.42-0.151-0.513-0.565-0.452c-1.193,0.146-2.401,0.145-3.594-0.003
	c-0.413-0.034-0.819-0.131-1.203-0.287c-0.272-0.106-0.507-0.287-0.679-0.523c-0.236-0.305-0.245-0.728-0.023-1.043
	c0.24-0.341,0.575-0.603,0.964-0.755c0.72-0.32,1.48-0.539,2.26-0.65C73.862,32.063,74.518,31.992,75.302,31.894z"/>
<path id="Path_18" class="st3" d="M322.446,64.603c-0.271,0.556-0.165,1.039-0.207,1.505c-0.08,0.896-0.151,1.794-0.23,2.69
	c-0.022,0.286-0.133,0.557-0.317,0.776c-0.195,0.233-0.543,0.264-0.776,0.069c-0.031-0.026-0.058-0.054-0.083-0.086
	c-0.195-0.271-0.298-0.598-0.294-0.932c-0.072-1.088-0.13-2.176-0.196-3.264c-0.014-0.236-0.011-0.475-0.044-0.709
	c-0.018-0.248-0.224-0.44-0.472-0.44c-0.852-0.042-1.704-0.07-2.555-0.101c-0.759,0.001-1.516-0.073-2.261-0.219
	c-0.389-0.091-0.732-0.24-0.834-0.668c-0.078-0.322,0.257-0.719,0.815-0.825c1.069-0.202,2.148-0.375,3.23-0.485
	c2.136-0.217,1.792-0.056,1.731-1.978c-0.033-1.043-0.082-2.084-0.117-3.126c-0.034-0.475,0.038-0.952,0.209-1.396
	c0.144-0.419,0.536-0.7,0.979-0.703c0.44-0.014,0.844,0.246,1.014,0.652c0.158,0.345,0.25,0.716,0.272,1.095
	c0.143,1.272,0.221,2.551,0.235,3.831c0.004,0.794,0.026,0.779,0.772,0.829c0.614,0.033,1.226,0.1,1.832,0.202
	c0.52,0.086,0.997,0.344,1.351,0.735c0.444,0.459,0.432,1.192-0.027,1.636c-0.008,0.008-0.017,0.016-0.025,0.024
	c-0.427,0.383-0.961,0.624-1.531,0.691C324.104,64.559,323.275,64.626,322.446,64.603z"/>
<path id="Path_333" class="st3" d="M237.383,327.901c-0.141,0.385-0.198,0.796-0.167,1.205c-0.064,0.718-0.121,1.437-0.184,2.155
	c-0.017,0.229-0.106,0.446-0.254,0.622c-0.156,0.187-0.434,0.212-0.621,0.056c-0.025-0.02-0.047-0.044-0.067-0.069
	c-0.157-0.217-0.239-0.479-0.235-0.747c-0.058-0.871-0.105-1.743-0.157-2.615c-0.011-0.189-0.009-0.381-0.035-0.568
	c-0.015-0.198-0.179-0.352-0.378-0.353c-0.682-0.034-1.365-0.056-2.047-0.081c-0.608,0-1.215-0.058-1.811-0.175
	c-0.312-0.073-0.585-0.193-0.668-0.535c-0.062-0.258,0.206-0.577,0.653-0.661c0.856-0.162,1.72-0.3,2.587-0.389
	c1.711-0.174,1.436-0.045,1.387-1.584c-0.026-0.836-0.066-1.671-0.094-2.507c-0.027-0.381,0.03-0.762,0.167-1.118
	c0.116-0.335,0.429-0.56,0.784-0.563c0.353-0.011,0.676,0.196,0.813,0.522c0.127,0.276,0.201,0.574,0.218,0.877
	c0.114,1.019,0.177,2.043,0.188,3.069c0.003,0.636,0.021,0.624,0.619,0.664c0.492,0.026,0.982,0.08,1.468,0.162
	c0.417,0.069,0.798,0.276,1.082,0.589c0.356,0.368,0.347,0.954-0.021,1.31c-0.007,0.007-0.014,0.013-0.021,0.02
	c-0.342,0.307-0.77,0.5-1.226,0.554C238.71,327.865,238.047,327.919,237.383,327.901z"/>
<path id="Path_19" class="st2" d="M61.41,314.135c-0.685,0.12-1.185,0.225-1.691,0.292c-0.957,0.162-1.939,0.094-2.864-0.196
	c-0.303-0.102-0.59-0.247-0.853-0.43c-0.469-0.332-0.579-0.981-0.247-1.45c0.02-0.028,0.041-0.054,0.063-0.08
	c0.435-0.478,0.982-0.841,1.592-1.057c0.957-0.387,1.974-0.605,3.005-0.646c0.655-0.045,0.82-0.226,0.785-0.831
	c-0.042-0.77-0.134-1.538-0.238-2.303c-0.162-0.955-0.124-1.934,0.112-2.873c0.078-0.311,0.179-0.617,0.304-0.912
	c0.221-0.487,0.556-0.938,1.123-0.94c0.567-0.002,0.902,0.445,1.15,0.916c0.464,0.925,0.691,1.951,0.66,2.986
	c0,1.03-0.007,2.06,0.008,3.092c-0.023,0.304,0.205,0.569,0.509,0.591c0.035,0.003,0.07,0.002,0.104-0.002
	c1.03-0.029,2.058-0.108,3.088-0.129c0.963-0.019,1.931-0.028,2.892,0.034c0.566,0.037,1.191,0.13,1.402,0.81
	c0.134,0.43-0.408,0.914-1.337,1.158c-0.683,0.18-1.383,0.302-2.078,0.433c-0.949,0.178-1.903,0.33-2.851,0.512
	c-1.556,0.299-1.54,0.305-1.562,1.838c-0.023,1.609-0.055,3.217-0.127,4.825c-0.036,0.512-0.136,1.017-0.298,1.504
	c-0.085,0.393-0.408,0.69-0.807,0.742c-0.442,0.033-0.701-0.297-0.858-0.662c-0.263-0.659-0.416-1.357-0.452-2.066
	c-0.113-1.412-0.241-2.823-0.371-4.233C61.548,314.809,61.486,314.562,61.41,314.135z"/>
</svg>
