<svg version="1.1" id="Layer_1" xmlns="http://www.w3.org/2000/svg" xmlns:xlink="http://www.w3.org/1999/xlink" x="0px" y="0px"
	 viewBox="0 0 1953.125 620.124" style="enable-background:new 0 0 1953.125 620.124;" xml:space="preserve">
<style type="text/css">
	.st0{fill:#567C49;}
	.st1{fill:#FECD31;}
	.st2{fill:#FFFFFF;}
	.st3{fill:#F6CEBF;}
	.st4{fill:#D0A798;}
</style>
<path id="Path_9" class="st0" d="M375.036,57.215c2.714,1.83,5.427,3.661,8.141,5.491c0.713,0.569,1.519,1.011,2.383,1.306
	c0.349,0.139,0.673,0.333,0.961,0.575c1.383,0.924,2.758,1.86,4.143,2.781c0.68,0.523,1.437,0.938,2.244,1.229
	c0.49,0.217,0.951,0.495,1.371,0.828c1.3,0.942,2.681,1.767,4.127,2.465c0.955,0.489,1.858,1.073,2.696,1.744
	c0.46,0.371,0.988,0.651,1.553,0.823c0.211,0.041,0.411,0.128,0.583,0.257c1.512,1.22,3.352,1.883,4.964,2.934
	c0.342,0.26,0.729,0.455,1.142,0.575c0.211,0.041,0.412,0.12,0.593,0.235c1.549,0.943,3.159,1.782,4.82,2.511
	c1.427,0.721,2.829,1.481,4.302,2.108c0.318,0.092,0.502,0.425,0.41,0.743c-0.018,0.062-0.046,0.121-0.082,0.174
	c-0.529,0.994-1.206,1.902-2.01,2.691c-0.202,0.175-0.384,0.371-0.545,0.584c-2.538,3.174-5.579,5.911-9.002,8.102
	c-1.812,1.136-3.728,2.096-5.722,2.868c-2.346,0.907-4.81,1.47-7.317,1.672c-1.97,0.197-3.957,0.163-5.919-0.102
	c-2.224-0.348-4.41-0.905-6.529-1.665c-1.082-0.383-2.111-1.026-3.162-1.52c-1.474-0.757-2.894-1.615-4.251-2.566
	c-0.521-0.283-0.976-0.672-1.336-1.142c-0.12-0.178-0.278-0.328-0.462-0.438c-1.428-1.033-2.73-2.23-3.881-3.565
	c-1.612-1.711-3.024-3.599-4.208-5.63c-1.298-2.028-2.356-4.199-3.155-6.471c-0.969-2.496-1.554-5.125-1.737-7.796
	c-0.043-0.905-0.238-1.794-0.284-2.709c-0.106-1.87-0.024-3.746,0.246-5.6c0.328-2.828,1.35-5.532,2.975-7.87
	c0.417-0.563,0.773-1.167,1.191-1.72c0.241-0.418,0.775-0.561,1.192-0.32c0.026,0.015,0.052,0.032,0.076,0.049
	c0.374,0.207,0.725,0.46,1.08,0.7c2.803,1.89,5.605,3.781,8.407,5.671L375.036,57.215z"/>
<path id="Path_331" class="st1" d="M1093.144,537.885c1.746-2.157,3.493-4.315,5.239-6.472c0.535-0.561,0.969-1.211,1.282-1.92
	c0.143-0.285,0.331-0.545,0.557-0.77c0.883-1.1,1.775-2.193,2.656-3.295c0.492-0.536,0.898-1.145,1.204-1.805
	c0.219-0.398,0.488-0.766,0.8-1.096c0.891-1.029,1.69-2.134,2.387-3.304c0.484-0.771,1.044-1.49,1.672-2.148
	c0.348-0.362,0.623-0.786,0.81-1.252c0.048-0.176,0.136-0.338,0.256-0.475c1.014-1.274,1.962-2.6,2.841-3.97
	c0.245-0.27,0.438-0.583,0.57-0.923c0.05-0.175,0.132-0.339,0.243-0.484c0.91-1.238,1.737-2.536,2.475-3.883
	c0.715-1.151,1.46-2.28,2.098-3.478c0.1-0.262,0.394-0.393,0.656-0.292c0.052,0.02,0.1,0.048,0.142,0.083
	c0.801,0.52,1.518,1.16,2.125,1.897c0.133,0.183,0.285,0.352,0.454,0.504c2.494,2.378,4.581,5.149,6.18,8.202
	c0.826,1.614,1.495,3.303,2,5.044c0.593,2.048,0.888,4.172,0.873,6.305c0.021,1.679-0.155,3.354-0.524,4.992
	c-0.456,1.852-1.087,3.656-1.882,5.39c-0.402,0.884-1.022,1.708-1.517,2.559c-0.749,1.189-1.577,2.326-2.481,3.401
	c-0.276,0.419-0.637,0.776-1.061,1.046c-0.159,0.088-0.297,0.211-0.404,0.358c-0.978,1.13-2.085,2.142-3.298,3.015
	c-1.564,1.236-3.264,2.289-5.067,3.14c-1.809,0.946-3.722,1.68-5.699,2.186c-2.18,0.635-4.443,0.937-6.712,0.896
	c-0.767-0.029-1.533,0.07-2.309,0.04c-1.589-0.049-3.168-0.259-4.715-0.626c-2.365-0.485-4.574-1.548-6.428-3.093
	c-0.443-0.392-0.927-0.736-1.366-1.133c-0.335-0.235-0.417-0.697-0.182-1.032c0.015-0.022,0.032-0.043,0.05-0.063
	c0.202-0.302,0.442-0.578,0.671-0.862c1.803-2.227,3.606-4.455,5.409-6.682L1093.144,537.885z"/>
<path id="Path_330" class="st0" d="M1790.236,251.145c0.05,2.359-0.407,4.7-1.34,6.867c-0.82,2.487-1.854,4.898-3.091,7.206
	c-1.441,2.738-3.103,5.355-4.968,7.824c-1.241,1.554-2.31,3.258-3.642,4.727c-1.851,2.235-4.223,3.981-6.907,5.086
	c-0.847,0.283-1.73,0.446-2.622,0.482c-2.765,0.215-5.52-0.522-7.808-2.089c-2.092-1.331-3.99-2.943-5.643-4.791
	c-1.659-1.931-3.149-4.001-4.454-6.186c-1.883-2.967-3.249-6.233-4.037-9.658c-0.628-2.248-0.984-4.562-1.059-6.895
	c0.023-2.556,0.749-5.057,2.1-7.227c2.202-3.62,5.556-6.396,9.524-7.881c2.361-0.952,4.848-1.554,7.383-1.789
	c1.218-0.191,2.447-0.309,3.679-0.355c0.822,0.026,1.641,0.117,2.449,0.271c1.337,0.269,2.716,0.308,4.076,0.527
	c3.205,0.391,6.333,1.264,9.278,2.589c2.637,1.3,4.926,3.044,6.1,5.89C1790.007,247.44,1790.344,249.292,1790.236,251.145z"/>
<path id="Path_335" class="st2" d="M1937.04,72.4c-2.104-0.249-4.13-0.947-5.941-2.047c-2.11-1.04-4.125-2.262-6.024-3.651
	c-2.256-1.624-4.375-3.43-6.339-5.398c-1.231-1.299-2.61-2.462-3.749-3.83c-1.756-1.925-3.014-4.252-3.662-6.776
	c-0.146-0.789-0.18-1.594-0.101-2.392c0.154-2.486,1.155-4.845,2.835-6.685c1.444-1.694,3.115-3.182,4.964-4.421
	c1.925-1.234,3.953-2.3,6.06-3.188c2.875-1.304,5.951-2.11,9.096-2.383c2.078-0.278,4.182-0.305,6.266-0.08
	c2.271,0.34,4.404,1.299,6.165,2.772c2.945,2.411,4.995,5.741,5.819,9.457c0.551,2.219,0.776,4.507,0.668,6.791
	c0.017,1.106-0.031,2.212-0.143,3.312c-0.126,0.728-0.309,1.445-0.548,2.145c-0.407,1.155-0.614,2.378-0.978,3.56
	c-0.748,2.803-1.916,5.476-3.462,7.93C1945.751,71.321,1941.353,73.287,1937.04,72.4z"/>
<path id="Path_334" class="st3" d="M24.149,535.942c0.027,1.25-0.215,2.491-0.71,3.639c-0.435,1.318-0.983,2.596-1.638,3.819
	c-0.764,1.452-1.644,2.84-2.633,4.149c-0.658,0.824-1.224,1.727-1.93,2.505c-0.981,1.186-2.237,2.113-3.66,2.7
	c-0.449,0.15-0.916,0.236-1.389,0.255c-1.465,0.114-2.925-0.277-4.138-1.107c-1.108-0.705-2.114-1.56-2.99-2.539
	c-0.879-1.023-1.669-2.12-2.361-3.278c-0.998-1.572-1.721-3.303-2.139-5.118c-0.333-1.191-0.521-2.418-0.561-3.654
	c0.012-1.355,0.397-2.68,1.113-3.83c1.167-1.918,2.944-3.389,5.047-4.176c1.249-0.507,2.566-0.83,3.908-0.958
	c0.646-0.101,1.297-0.164,1.95-0.188c0.436,0.014,0.871,0.062,1.3,0.144c0.708,0.143,1.44,0.163,2.16,0.279
	c1.699,0.207,3.356,0.67,4.917,1.372c2.406,0.982,3.917,3.39,3.753,5.984L24.149,535.942z"/>
<path id="Path_332" class="st1" d="M739.777,23.823c-1.186-0.356-2.282-0.963-3.213-1.78c-1.109-0.813-2.145-1.721-3.097-2.713
	c-1.134-1.164-2.171-2.419-3.102-3.751c-0.575-0.872-1.252-1.682-1.77-2.585c-0.816-1.287-1.303-2.755-1.419-4.275
	c-0.004-0.469,0.058-0.936,0.185-1.388c0.342-1.416,1.158-2.672,2.313-3.559c1.004-0.828,2.117-1.515,3.308-2.04
	c1.234-0.515,2.509-0.923,3.813-1.22c1.788-0.459,3.64-0.611,5.479-0.449c1.224,0.051,2.438,0.249,3.615,0.59
	c1.273,0.425,2.404,1.193,3.269,2.219c1.451,1.686,2.292,3.811,2.39,6.034c0.092,1.334-0.011,2.673-0.305,3.977
	c-0.103,0.639-0.243,1.272-0.42,1.895c-0.146,0.406-0.324,0.801-0.532,1.179c-0.35,0.622-0.595,1.307-0.925,1.95
	c-0.715,1.537-1.658,2.958-2.798,4.213c-1.663,1.966-4.394,2.652-6.789,1.704L739.777,23.823z"/>
<path id="Path_17" class="st4" d="M1394.024,32.132c0-2.243,0.006-4.026,0-5.81c-0.049-3.067,0.239-6.131,0.859-9.135
	c0.314-1.402,0.775-2.767,1.375-4.072c0.401-1.249,1.574-2.086,2.885-2.06c1.096,0.149,2.024,0.882,2.424,1.913
	c1.012,1.915,1.707,3.982,2.06,6.119c0.7,4.084,1.395,8.168,2.017,12.263c0.2,1.286,0.8,1.931,2.08,1.928
	c1.622,0,3.245-0.046,4.866-0.043c6.309,0.012,12.617,0.031,18.925,0.058c1.998-0.094,3.973,0.46,5.63,1.58
	c1.289,0.972,1.547,2.806,0.574,4.095c-0.052,0.069-0.107,0.135-0.164,0.199c-1.26,1.317-2.934,2.161-4.742,2.39
	c-3,0.615-6.028,1.086-9.061,1.489c-5.358,0.711-10.733,1.289-16.09,2c-2.508,0.332-2.7,0.584-2.457,3.135
	c0.577,6.112,0.667,12.239,0.677,18.367c0.133,1.442-0.073,2.896-0.6,4.245c-0.332,0.863-1.109,1.476-2.025,1.6
	c-0.924,0.066-1.806-0.399-2.272-1.2c-0.908-1.564-1.458-3.311-1.609-5.113c-0.46-3.573-0.891-7.15-1.338-10.725
	c-0.246-1.968-0.463-3.939-0.758-5.9c-0.274-1.826-0.659-2.234-2.457-1.969c-5.193,0.637-10.446,0.633-15.638-0.012
	c-1.798-0.149-3.563-0.57-5.234-1.249c-1.182-0.461-2.208-1.25-2.956-2.274c-1.026-1.327-1.067-3.169-0.1-4.54
	c1.045-1.483,2.504-2.625,4.194-3.284c3.131-1.392,6.441-2.344,9.833-2.83C1387.758,32.871,1390.615,32.562,1394.024,32.132z"/>
<path id="Path_18" class="st3" d="M1641.793,600.304c-1.04,2.132-0.632,3.984-0.793,5.77c-0.307,3.438-0.578,6.879-0.882,10.318
	c-0.083,1.095-0.509,2.136-1.217,2.975c-0.749,0.895-2.081,1.014-2.976,0.265c-0.118-0.098-0.224-0.209-0.318-0.33
	c-0.749-1.04-1.144-2.293-1.126-3.575c-0.276-4.171-0.5-8.344-0.75-12.518c-0.054-0.905-0.042-1.822-0.167-2.718
	c-0.069-0.95-0.859-1.686-1.811-1.689c-3.267-0.162-6.536-0.27-9.8-0.389c-2.911,0.002-5.815-0.28-8.671-0.841
	c-1.491-0.349-2.806-0.922-3.2-2.562c-0.3-1.235,0.986-2.759,3.126-3.163c4.1-0.776,8.236-1.437,12.387-1.86
	c8.19-0.833,6.873-0.214,6.64-7.584c-0.125-4-0.313-7.992-0.447-11.99c-0.129-1.822,0.144-3.65,0.8-5.355
	c0.551-1.605,2.056-2.686,3.753-2.695c1.689-0.052,3.235,0.942,3.89,2.5c0.607,1.323,0.96,2.747,1.043,4.2
	c0.547,4.879,0.848,9.783,0.9,14.692c0.014,3.046,0.1,2.986,2.961,3.179c2.355,0.125,4.701,0.384,7.027,0.776
	c1.996,0.328,3.822,1.321,5.182,2.818c1.704,1.761,1.658,4.57-0.103,6.274c-0.032,0.031-0.064,0.061-0.097,0.091
	c-1.637,1.467-3.687,2.393-5.87,2.651C1648.15,600.136,1644.971,600.391,1641.793,600.304z"/>
<path id="Path_333" class="st3" d="M363.545,122.337c-0.337,0.922-0.473,1.906-0.4,2.885c-0.153,1.719-0.289,3.439-0.441,5.159
	c-0.041,0.548-0.254,1.068-0.608,1.488c-0.374,0.448-1.04,0.508-1.487,0.134c-0.059-0.049-0.113-0.105-0.16-0.166
	c-0.375-0.52-0.572-1.147-0.563-1.788c-0.138-2.085-0.252-4.172-0.375-6.259c-0.027-0.453-0.021-0.911-0.083-1.359
	c-0.035-0.474-0.429-0.842-0.905-0.844c-1.633-0.081-3.268-0.135-4.9-0.194c-1.455,0.001-2.907-0.14-4.335-0.42
	c-0.746-0.174-1.4-0.461-1.6-1.281c-0.148-0.618,0.493-1.38,1.563-1.582c2.05-0.388,4.118-0.719,6.193-0.93
	c4.095-0.416,3.436-0.107,3.32-3.792c-0.062-2-0.157-4-0.224-6c-0.064-0.911,0.072-1.825,0.4-2.677
	c0.277-0.801,1.028-1.341,1.876-1.347c0.844-0.026,1.617,0.47,1.945,1.249c0.303,0.661,0.48,1.374,0.521,2.1
	c0.274,2.44,0.424,4.891,0.45,7.346c0.007,1.523,0.05,1.493,1.481,1.589c1.177,0.063,2.35,0.192,3.513,0.388
	c0.998,0.164,1.911,0.661,2.591,1.409c0.852,0.88,0.83,2.284-0.05,3.136c-0.016,0.016-0.033,0.031-0.05,0.047
	c-0.818,0.734-1.843,1.197-2.935,1.326C366.721,122.251,365.133,122.379,363.545,122.337z"/>
<path id="Path_19" class="st2" d="M277.501,396.101c-1.639,0.287-2.837,0.539-4.047,0.7c-2.29,0.387-4.64,0.226-6.856-0.469
	c-0.726-0.245-1.413-0.592-2.041-1.03c-1.122-0.795-1.387-2.348-0.592-3.47c0.047-0.066,0.097-0.13,0.15-0.191
	c1.042-1.145,2.351-2.014,3.811-2.531c2.291-0.926,4.724-1.449,7.193-1.546c1.567-0.107,1.963-0.541,1.88-1.988
	c-0.1-1.842-0.32-3.682-0.569-5.512c-0.387-2.286-0.296-4.628,0.267-6.877c0.186-0.745,0.429-1.476,0.727-2.184
	c0.529-1.165,1.331-2.246,2.689-2.251s2.158,1.065,2.753,2.192c1.11,2.215,1.653,4.671,1.58,7.147c0,2.466-0.016,4.932,0.018,7.4
	c-0.055,0.727,0.491,1.361,1.218,1.415c0.083,0.006,0.167,0.005,0.25-0.005c2.465-0.069,4.926-0.258,7.392-0.308
	c2.306-0.046,4.622-0.068,6.922,0.081c1.355,0.088,2.85,0.311,3.355,1.939c0.32,1.03-0.976,2.187-3.2,2.772
	c-1.635,0.431-3.311,0.723-4.975,1.036c-2.272,0.426-4.554,0.789-6.824,1.225c-3.724,0.715-3.687,0.731-3.739,4.4
	c-0.054,3.851-0.132,7.7-0.305,11.55c-0.087,1.225-0.326,2.434-0.713,3.6c-0.204,0.94-0.977,1.651-1.931,1.775
	c-1.059,0.079-1.677-0.711-2.054-1.584c-0.63-1.578-0.996-3.248-1.082-4.945c-0.271-3.38-0.576-6.757-0.887-10.133
	C277.832,397.714,277.683,397.123,277.501,396.101z"/>
</svg>
