<svg xmlns="http://www.w3.org/2000/svg" viewBox="0 0 116 116">
<rect fill="#224928" x="-0.143" y="-0.287" width="116.287" height="116.287"/>
<g fill="#F6CEBF">
	<path d="M75.621,75.615c0.004,0,0.004,0.002,0.006,0.003C75.636,75.617,75.636,75.616,75.621,75.615z"/>
	<path d="M50.603,89.63c-0.004,0-0.005-0.002-0.007-0.003C50.586,89.628,50.585,89.629,50.603,89.63z"/>
	<path d="M86.561,77.859c0.101-1.905-0.703-3.8-2.058-5.031c-0.866-0.289-2.065-0.37-2.715,0.388
		c-2.383,1.775-1.197,2.495-1.868,2.603c-0.197,0.032-3.148,0.247-3.593,0.172c-0.314-0.052,0.295-0.238,1.203-0.288
		c0.85-0.047,0.432-0.302,0.072-0.216c-0.997,0.239-2.304,0.331-3.146-0.006c-1.956-0.783-0.997-5.019-1.303-7.029
		c-0.047-6.573,0.678-12.462-6.317-15.773c-1.437-0.636-2.997-0.799-4.519-1.061c-0.112-0.378-0.33,0.177-0.592,0.102
		c-0.439-0.675-0.164-0.083-0.971-0.521c-1.165,0.337-1.256-0.333-1.742-1.198c-0.348-0.774-0.914-1.493-1.513-2.103
		c-2.214-2.26-5.211-3.209-8.323-3.297c-1.482,0.049-0.438-0.532-1.423-0.037c-0.172-0.17-0.15-0.477-0.489-0.311
		c-0.455-0.341-1.141-0.173-1.681-0.044c-1.108,0.112-1.711,0.88-2.58,1.445c-0.486,0.789-0.455,1.449-0.424,2.314
		c0.123,0.602,0.54,0.988,0.816,1.499c1.125,1.094,1.183,0.733,2.422,1.159c0.052,0.014,0.051-0.027,0.103-0.014
		c0.279,0.46,0.445-0.055,0.973,0.191c0.382-0.466,1.199,0.283,1.208-0.251c0.707-0.357,1.769-0.046,2.543-0.321
		c0.13,0.163,0.249,0.011,0.372,0.031c0.084,0.074,0.163,0.07,0.267,0.057c0.097,0.106,0.198,0.066,0.298,0.142
		c0.678-0.052,1.36,0.453,1.931,0.812c3.214,2.451,2.309,7.771-1.505,9.263c-0.253,0.011-0.515,0.112-0.757,0.256
		c-0.04-0.054-0.04-0.095-0.167-0.089c-0.192,0.01-0.476,0.223-0.656,0.28c-0.02,0.087-0.279,0.104-0.418,0.134
		c-0.365,0.104-0.905,0.209-0.911,0.29c-0.251,0-1.841,0.345-1.982,0.314c-0.037,0.036-0.062,0.085-0.123,0.096
		c-0.03,0.004-0.459,0.325-1.829,0.23c-0.552-0.038-0.412,0.208,0,0.178c0.648-0.048,1.253-0.13,1.575-0.125
		c0.283,0.004,0.413,0.341-0.538,0.374c-0.125,0.004-0.134,0.188,0.005,0.198c0.385,0.028,0.633-0.099,1.118-0.112
		c0.485-0.013,0.697,0.249,0.054,0.213c0.101,0.081-0.06,0.015-0.088,0.064c0.493,0.243-1.205,0.205-1.896,0.241
		c-0.13,0.007-0.158,0.134,0,0.139c0.194,0.006,0.438-0.018,0.529-0.03c1.045-0.129,3.068,0.288,2.593,0.644
		c-0.501,0.026-2.897,0.179-0.937,0.375c0.266,0.605-2.548,0.225-3.74,0.297c-0.196,0.012-0.148,0.187-0.005,0.189
		c0.999,0.013,1.863-0.093,2.789-0.055c0.399,0.017-0.086,0.332,0.127,0.377c1.698,0.362,6.357-0.1,9.513,0.425
		c2.479,0.583,4.679,3.044,4.203,5.848c-1.196,5.427-6.493,3.954-10.645,4.122c-2.283-0.247-4.776,0.041-7.039-0.39
		c-0.149-0.378-0.439,0.178-0.788,0.102c-0.258-0.195-0.265-0.47-0.661-0.323c-1.024-0.241-2.081,0.063-3.064,0.451
		c-1.852,1.014-3.406,2.849-3.22,4.953c0.01,0.73,0.075,1.326,0.534,1.918c0.198,0.186,0.467,0.053,0.609,0.357
		c0.051,0.016,0.067-0.038,0.103-0.052c1.081,0.12,1.748-0.371,2.679-0.64c0.331-0.253,0.903-0.189,1.233-0.329
		c0.13-0.104,0.347-0.269,0.516-0.122c0.135-0.066,0.2,0.341,0.276-0.019c0.157,0.006,0.157,0.158,0.239-0.075
		c0.33-0.249,1.202,0.407,1.27-0.131c0.762-0.291,2.077-0.147,2.941-0.198c1.152-0.182,2.264-0.153,3.392-0.089
		c3.023-0.408,6.189,0.127,9.202-0.612c9.349-2.576,9.775-16.111,0.401-18.968c0.738-0.964,1.221-2.134,1.607-3.253
		c0.198-0.187,0.488-0.081,0.723-0.033c0.402-0.463,1.332,0.28,1.337-0.251c0.226-0.28,0.936-0.069,1.079-0.17
		c0.377,0.05,0.762,0.017,1.153,0.037c0.1,0.207,0.264,0.072,0.392,0.122c0.079,0.085,0.151,0.124,0.271,0.133
		c0.083,0.129,0.213,0.103,0.291,0.219c0.77,0.159,1.328,0.868,1.83,1.426c1.596,2.425,0.854,5.712,1.153,8.579
		c0.373,3.79-0.666,9.183,3.466,10.731c0.944,0.354,2.017,0.481,2.043,0.404c0.597,0.151,1.344,0.215,1.611-0.027
		c0.267-0.242,1.063,0.05,1.05-0.191c-0.026-0.508,1.267-0.293,1.967-0.418c0.162-0.029,0.18-0.245-0.029-0.162
		c-0.326,0.129-0.781,0.241-0.994,0.104c-0.458-0.297-0.936,0.011-1.139-0.01c-0.184-0.262,0.399-0.261,0.894-0.28
		c0.257-0.01,0.356-0.156-0.009-0.148c-0.55,0.012-1.584,0.304-1.651,0.028c-0.059-0.245,0.969-0.018,0.565-0.247
		c-0.404-0.229,0.682-0.326,1.978-0.24c0.34,0.023,0.281-0.223-0.005-0.187c-1.743,0.216-3.256-0.032-3.304-0.293
		c-0.062-0.336-0.066-0.581,1.835-0.351c0.438,0.053,1.068,0.237,1.094,0.022c0.029-0.245-0.299-0.109-1.13-0.225
		c-3.015-0.42,3.42-0.531,3.622-0.323c0.118,0.122,0.039,0.292-0.017,0.394c-0.098,0.178,0.1,0.358-0.123,0.488
		c-0.099,0.057,0.14,0.515-0.414,0.551c-0.254,0.016-0.127,0.278,0.007,0.227c0.324-0.123,0.294,0.02,0.314,0.021
		c-0.019,0.299-0.667,0.108-0.627,0.285c0.057,0.255,0.427-0.083,0.596-0.076c0.178,0.45,0.179,1.004,0.002,1.449
		c0.135,0.124,0.457,0.17,0.353,0.509c-0.12,0.394-0.018,0.802-0.23,1.14c0.045,0.412-0.272,0.707-0.346,1.051
		c-0.113,0.071-0.179,0.141-0.218,0.277c-0.085,0.062-0.173,0.111-0.207,0.211c-1.688,2.441-5.123,1.872-7.811,1.982
		c-5.699,0.287-11.781,0.278-17.236,0.748c-1.083,0.093-1.88,0.587-2.676,0.535c-0.392-0.026-0.714,0.153-1.07,0.103
		c0.058,0.171-0.644-0.224-0.798,0.133c-0.176,0.407-1.499,0.399-2.291,0.399c-0.263,0-0.407,0.27,0.011,0.184
		c0.375-0.078,0.726-0.112,1.071-0.059c-0.021-0.12,0.14-0.1,1.102-0.011c0.962,0.09-0.016,0.262-0.758,0.266
		c-0.33,0.002-0.311,0.213,0.021,0.133c0.497-0.12,0.715-0.006,1.32-0.198c0.302-0.096,0.06,0.194,0.173,0.307
		c0.375,0.374-1.648,0.381-2.619,0.221c-0.785-0.13-0.928,0.248-0.022,0.18c2.072-0.156,2.18,0.242,3.692,0.228
		c0.74-0.007,0.33,0.426,0.086,0.428c-0.495,0.004-1.416-0.218-1.796-0.063c-0.288,0.117-0.264,0.365,0.144,0.417
		c2.545,0.328-2.383,0.375-4.096,0.325c-0.241-0.007-0.171,0.225-0.009,0.222c0.502-0.01,1.07-0.202,1.755-0.041
		c0.892,0.211,1.576-0.083,2.129-0.064c0.315,0.011,0.413,0.117,0.043,0.291c-0.057,0.027-0.036,0.098,0.048,0.104
		c2.437,0.172,4.864,0.094,7.267,0.416c3.997,0.073,8.284-0.229,12.324-0.183c3.615-0.33,7.556,0.731,10.89-1.059
		c3.474-1.575,6.209-5.75,5.97-9.418c0.213-0.221,0.469-0.248,0.311-0.628C86.535,78.435,86.694,78.161,86.561,77.859z
		 M49.991,86.56c-0.132,0.124-0.358,0.145-0.461,0.068c-0.103-0.077,0.564-0.21,0.834-0.192
		C50.45,86.687,50.175,86.387,49.991,86.56z"/>
	<path d="M46.238,38.068c0.255-0.177,0.529-0.546,0.653-0.863c0.048-0.123-0.044-0.142-0.081-0.029
		c-0.142,0.437-0.298,0.576-0.687,0.797C45.85,38.128,45.983,38.244,46.238,38.068z"/>
	<path d="M45.394,37.944c-0.37,0.442-0.624,0.84-2.04,1.341c-0.379,0.134-0.961-0.035-0.904,0.19
		c0.085,0.337,1.21-0.091,2.137-0.7c0.388-0.256,0.797-0.668,0.912-0.773C45.735,37.788,45.674,37.61,45.394,37.944z"/>
	<path d="M47.865,28.959c0.007,0.008,0.007,0.011,0.01,0.016C47.894,28.994,47.896,28.995,47.865,28.959z"/>
	<path d="M35.992,59.902c4.585-5.363,1.953-13.799,2.415-20.389c0.221-3.095-1.266-7.484,2.108-8.987
		c0.543-0.375,1.603-0.595,2.38-0.394c0.074,0.019,0.064-0.025,0.037-0.053c-0.191-0.195,1.352,0.099,2.415,1.325
		c0.078,0.09-0.024-0.14,0.049-0.074c0.106,0.118,0.209,0.234,0.29,0.369c0.143,0.228,0.227,0.637,0.352,0.748
		c0.063,0.055-0.05-0.227,0.122-0.154c0.155,0.066,0.109,0.102,0.181,0.167c0.558,1.106,0.451,2.378,0.109,3.51
		c-0.059,0.196,0.051,0.251,0.129,0.032c0.242-0.678,0.243-1.673,0.198-1.954c0.302-0.129-0.197-1.851-0.423-2.178
		c0.191-0.7,0.987,0.919,0.81,2.239c-0.044,0.33,0.158,0.335,0.169,0.105c0.079-1.599-0.658-2.831-1.55-3.874
		c0.173-0.22,0.738,0.859,0.826,0.806c0.089-0.053,0.018-0.335,0.126-0.176c0.936,1.37,1.327,2.949,0.655,4.639
		c-0.103,0.259,0.095,0.353,0.178,0.083c0.83-2.695-0.438-5.879-2.785-7.291c0.029-0.042-0.057-0.1-0.078-0.15
		c1.62,0.332,2.877,2.09,3.487,3.616c0.138,0.141,0.152-0.009,0.175-0.152c0.034-0.602-1.198-2.493-0.815-2.063
		c2.559,2.874,1.932,7.543-1.978,10.545c-0.306,0.235-0.045,0.419,0.251,0.148c4.087-3.734,3.769-7.133,2.807-9.335
		c-0.747-1.711,0.148-0.222,0.362,0.203c0.159,0.317,0.325,0.805,0.36,0.789c0.064-0.03-0.079-0.308-0.247-0.789
		c-2.388-6.833-12.76-6.764-15.049,0.359c-0.516,1.117-0.526,2.465-0.492,3.722c-0.101,6.38,0.653,12.864-0.085,19.102
		c-1.408,5.305-8.902,6.352-11.985,1.98c-1.391-1.948-1.209-4.422-1.17-6.701c0.167-1.513-0.008-3.533,0.27-4.994
		c0.378-0.245-0.178-0.72-0.102-1.291c0.687-1.134,0.417-2.644,0.492-4.027c0.082-3.913-3.312-8.14-7.388-7.058
		c-0.72-0.023-0.432,0.451-1.017,0.686c-0.026,0.051,0.061,0.068,0.084,0.104c-0.093,1.146,0.422,1.7,1.045,2.531
		c-0.02,0.343,0.451,0.576,0.39,0.911c0.16,0.68,0.501,1.336,0.424,2.007c-0.091,0.155-0.104,0.245-0.079,0.422
		c-0.079,0.08-0.229,0.45-0.224,0.772c0.215,0.424,0.058,1.12,0.033,1.577c0.284,0.791,0.128,1.858,0.022,2.611
		c0.567,0.665,0.304,1.924,0.416,3.011c0.091,2.633,0.004,5.266,0.382,7.844C16.948,64.282,30.054,67.706,35.992,59.902z
		 M45.764,31.216c0.12,0,0.371,0.31,0.523,0.909c-0.347-0.304-0.349-0.416-0.628-0.8C45.765,31.334,45.645,31.216,45.764,31.216z"/>
	<path d="M26.668,68.44c-3.485-0.051-3.485,5.424,0,5.373C30.154,73.863,30.154,68.388,26.668,68.44z"/>
	<path d="M83.224,66.585c3.485,0.051,3.485-5.424,0-5.373C79.738,61.161,79.738,66.636,83.224,66.585z"/>
	<path d="M103.344,34.115c-0.004-0.011-0.006-0.022-0.006-0.033c0.008-0.548,0.161-1.041-0.158-1.514
		c-0.002-0.003-0.004-0.006-0.006-0.01c-0.296-0.57-0.234-2.227-0.842-2.328c-0.03-0.005-0.057-0.02-0.074-0.046
		c-1.693-2.726-4.702-4.513-7.948-4.437c-0.003,0-0.006,0-0.009,0c-2.25,0.192-4.318,1.382-6.22,2.465
		c-0.002,0.001-0.005,0.003-0.008,0.004c-4.04,1.831-18.156,9.08-21.334,10.724c-0.638,0.381-1.331,0.337-2.035,0.457
		c-0.108-0.072,0.108-0.259-0.288-0.238c-0.314,0.017-1.617-0.158-2.07-0.724c-0.121-0.151-0.209-0.025-0.137,0.082
		c0.014,0.021,0,0.047-0.023,0.064c-0.346-0.417-0.642-0.543-0.895-1.302c-0.097-0.292-0.265-0.103-0.301-0.157
		c-0.159-0.241,0.02-0.754-0.365-0.797c-0.294-0.033-0.24-0.618-0.241-0.91c-0.079-0.535,0.085-1.083,0.338-1.578
		c0.076-0.148-0.079-0.234-0.152-0.042c-0.142,0.376-0.194,0.771-0.293,1.14c-0.012,0.043-0.008,0.097,0.03,0.121
		c0.02,0.013,0.048,0.119-0.028,0.127c-0.294,0.03-0.093,0.985,0.04,1.466c-0.315,0.177-0.569-1.561-0.334-2.075
		c0.048-0.105-0.041-0.101-0.067-0.024c-0.379,1.114,0.216,2.552,0.499,3.087c-0.326,0.178-0.452-0.401-0.467-0.535
		c-0.042-0.362-0.173-0.221-0.234-0.07c-0.242,0.603-1.23-1.459,0.197-3.466c0.165-0.232-0.116-0.346-0.243-0.137
		c-1.183,1.933-0.427,4.356,0.286,5.831c0.084,0.174-0.025,0.205-0.128,0.157c-0.818-0.381-1.152-3.412-1.469-2.896
		c0.717,4.468-2.152-2.869,1.784-5.97c0.144-0.114-0.035-0.282-0.174-0.162c-1.401,1.209-2.082,3.185-2.144,4.204
		c-0.021,0.349-0.271,0.462-0.236,0.086c0.085-0.903,0.266-1.499,0.699-2.242c0.154-0.265-0.122-0.302-0.223-0.072
		c-3.767,8.61,4.233,12.068,8.461,11.435c0.003,0,0.006-0.001,0.01-0.001c1.895-0.036,3.664-1.406,5.433-2.179
		c0.072-0.032,0.149,0.031,0.136,0.109c-1.093,6.182,2.465,12.88,8.226,15.262c0.004,0.002,0.007,0.003,0.011,0.006
		c1.481,0.898,3.334,1.015,4.981,1.444c0.03,0.008,0.055,0.029,0.066,0.058c0.106,0.266,0.301-0.145,0.526-0.15
		c0.032-0.001,0.062,0.017,0.08,0.043c0.423,0.605,0.155,0.071,0.974,0.41c0.015,0.006,0.032,0.009,0.048,0.008
		c3-0.262,5.087-3.355,2.372-5.535c-0.489-0.387-1.028-0.893-1.643-1.023c-0.016-0.003-0.034-0.002-0.049,0.002
		c-0.377,0.11-0.614-0.039-0.873-0.192c-0.043-0.026-0.098-0.014-0.129,0.026c-0.142,0.183-0.314-0.149-0.445,0.11
		c-0.007,0.014-0.017,0.028-0.03,0.037c-0.262,0.183-0.59-0.327-0.612,0.102c-0.01,0.207-0.51,0.097-0.724,0.18
		c-0.181-0.138-0.211,0.113-0.565-0.055c-0.354-0.168-0.994-0.169-1.173-0.131c-0.071-0.057-0.023-0.057-0.22-0.092
		c-0.197-0.035-0.336-0.206-0.656-0.155c-0.024,0.004-0.048,0.003-0.069-0.008c-0.71-0.375-1.348-0.672-1.996-1.116
		c-0.002-0.001-0.004-0.003-0.006-0.005c-2.796-2.152-4.119-5.927-3.247-9.389c0.006-0.025,0.078-0.112,0.095-0.136
		c-0.04-0.255,0.21-0.476,0.133-0.748c0.216-1.351,0.756-1.538,0.452-1.795c4.372-2.304,9.079-4.4,13.568-6.429
		c1.197-0.564,2.378-1.414,3.758-1.178c0.743,0.075,1.679,0.721,1.801,1.487c0.005,0.031-0.007,0.063-0.03,0.085
		c-0.141,0.137,0.067,0.127,0.2,0.173c0.07,0.025,0.087,0.117,0.031,0.167c-0.449,0.404-0.299,1.183-0.192,1.436
		c0.377,0.658-0.082,2.132-0.108,2.895c-0.001,0.017-0.007,0.035-0.016,0.049c-0.178,0.283,0.143,0.521,0.024,0.819
		c-0.01,0.025-0.012,0.054-0.002,0.079c0.965,2.433,4.176,1.352,5.378-0.458c0.002-0.003,0.004-0.006,0.006-0.009
		c0.423-0.778,0.902-1.899,1.077-2.532c0.005-0.017,0.014-0.031,0.026-0.043C103.392,35.191,103.512,34.591,103.344,34.115z
		 M60.756,37.085c-0.061,0.119-0.181-0.12-0.229-0.366c-0.05-0.254,0.041-0.163,0.09-0.086
		C60.685,36.738,60.821,36.959,60.756,37.085z"/>
</g>
</svg>
